<svg width="310" height="112" viewBox="0 0 310 112" fill="none" xmlns="http://www.w3.org/2000/svg">
<path d="M22.9831 94.0411C21.5024 94.0411 20.0187 94.1114 18.5697 94.2532L18.3588 94.2737C8.7477 95.2518 -0.282365 100.926 0.00676052 107.473L0.062653 108.657C0.0995171 109.406 0.138788 110.21 0.171111 111.103C0.188618 111.543 0.710397 111.881 1.35965 111.881H239.769C256.437 111.764 273.045 111.618 289.128 111.445C292.146 111.452 295.162 111.272 298.158 110.906C302.628 110.297 305.73 109.09 307.643 107.216C310.022 104.892 310.098 101.965 309.954 98.6582C309.661 91.9812 309.37 84.9668 309.08 77.9736C308.824 71.8104 308.569 65.6636 308.314 59.7787C308.156 56.2863 307.806 53.2037 305.104 50.8478C302.176 48.2998 296.836 47.0083 289.231 47.0083C289.14 47.0083 289.048 47.0083 288.955 47.0088C265.124 47.1064 241.511 56.5398 230.197 70.4827C228.895 72.0883 227.681 73.8072 226.507 75.4698C224.791 78.0221 222.896 80.4501 220.838 82.7357C219.695 83.9677 218.442 85.0924 217.094 86.0959C217.002 86.169 216.897 86.2474 216.786 86.3217C216.531 86.5125 216.265 86.6965 216.006 86.8603C214.507 87.8597 212.906 88.6975 211.231 89.3597L211.063 89.4244C210.937 89.4762 210.801 89.5281 210.664 89.5754C209.699 89.9318 208.714 90.2347 207.715 90.4829C203.403 91.5771 198.499 91.8394 193.141 91.2618C188.192 90.7106 183.327 89.5693 178.649 87.8622C173.688 86.057 169.043 83.8063 164.552 81.6299C162.579 80.6734 160.539 79.6848 158.501 78.7481C158.118 78.5717 157.741 78.3994 157.359 78.2271C154.87 77.1104 152.613 76.1881 150.46 75.4076C145.172 73.4758 139.638 72.2958 134.021 71.9023C128.094 71.5287 122.871 72.2333 118.501 73.9916C117.287 74.4791 116.113 75.0613 114.99 75.7329C109.813 78.8276 106.622 83.3949 103.536 87.812C99.6975 93.306 95.7279 98.9876 87.8897 101.933C78.8451 105.334 65.6429 103.921 56.3026 101.464C53.3659 100.691 50.4329 99.8019 47.5963 98.9418C46.4507 98.5944 45.3042 98.2493 44.157 97.9066C41.9025 97.2366 40.0575 96.7232 38.3505 96.2898L37.8106 96.1516C37.5103 96.0765 37.2097 96.0014 36.9036 95.9299C34.8761 95.4398 32.9882 95.0542 31.1289 94.7509L30.689 94.677C29.8071 94.5432 28.9826 94.432 28.1736 94.3384L27.8506 94.3014C26.234 94.1266 24.6091 94.0397 22.9831 94.0411Z" fill="#0B549F"/>
<path d="M274.888 45.043C274.292 47.2807 272.725 49.144 270.833 50.5014C270.524 50.7236 270.207 50.9292 269.886 51.1226C269.788 51.1802 269.689 51.2418 269.586 51.2953C269.475 51.3612 269.364 51.4229 269.253 51.4804H260.356C260.195 51.1555 260.039 50.8264 259.883 50.5014C256.07 42.4886 253.392 33.8422 253.848 25.0355C254.029 21.6195 254.747 18.2533 255.975 15.0605C258.418 8.6971 262.877 3.18928 269.01 0.416862C269.162 0.346935 269.323 0.277007 269.479 0.211193C269.43 0.388069 269.381 0.560818 269.331 0.737693C268.673 3.10803 268.208 5.52776 267.941 7.97315C267.916 8.16236 267.896 8.35159 267.879 8.54492C267.295 14.4425 267.814 20.3973 269.409 26.105C269.413 26.1173 269.418 26.1337 269.422 26.1461C269.771 27.4089 270.177 28.6525 270.639 29.8769C271.001 30.8436 271.392 31.7979 271.82 32.7357C273.605 36.6723 275.999 40.8679 274.888 45.043Z" fill="#6C63FF"/>
<path d="M269.59 0.396288C269.504 0.511463 269.417 0.622531 269.331 0.737706C267.524 3.132 265.99 5.72022 264.757 8.45442C264.691 8.59016 264.629 8.7259 264.576 8.86576C262.886 12.6838 261.801 16.7415 261.359 20.8933C261.355 20.9219 261.352 20.9507 261.351 20.9797C261.248 21.9504 261.187 22.9294 261.162 23.9084C261.07 25.7434 261.269 27.5814 261.75 29.3545C262.189 30.8025 262.958 32.1289 263.996 33.2293C264.099 33.3404 264.202 33.4514 264.313 33.5584C264.395 33.6448 264.486 33.7312 264.572 33.8134C265.403 34.6073 266.312 35.3436 267.093 36.1951C267.452 36.5769 267.775 36.9899 268.06 37.4291C268.515 38.1653 268.809 38.9894 268.922 39.8472C269.035 40.7051 268.966 41.5772 268.718 42.4063C268.159 44.4877 266.88 46.2441 265.571 47.9182C264.917 48.7574 264.243 49.6047 263.659 50.5014C263.445 50.8223 263.247 51.1472 263.066 51.4804H262.548C262.721 51.1472 262.91 50.8223 263.116 50.5014C264.617 48.1362 266.752 46.1042 267.859 43.5004C268.607 41.744 268.833 39.7532 267.887 38.0296C267.61 37.5285 267.275 37.0618 266.888 36.6393C266.135 35.7878 265.234 35.0598 264.416 34.2906C264.21 34.0973 264.008 33.8998 263.815 33.6941C262.79 32.6528 261.999 31.4047 261.495 30.0332C260.924 28.2913 260.654 26.4649 260.697 24.6323C260.697 23.4641 260.759 22.2877 260.874 21.1195C260.886 20.9714 260.903 20.8193 260.919 20.6671C261.76 13.3158 264.554 6.32374 269.01 0.41685C269.093 0.301675 269.179 0.190611 269.265 0.0795492C269.442 -0.150804 269.767 0.17006 269.59 0.396288Z" fill="white"/>
<path d="M261.085 21.1585C259.661 20.9192 258.367 20.1812 257.436 19.0764C256.505 17.9715 255.998 16.5718 256.004 15.1271C256.004 15.0682 256.028 15.0119 256.069 14.97C256.111 14.9282 256.167 14.9041 256.226 14.9028C256.285 14.9015 256.342 14.9231 256.385 14.9631C256.428 15.0031 256.455 15.0584 256.458 15.1172C256.45 16.4625 256.923 17.7663 257.792 18.7934C258.661 19.8204 259.868 20.503 261.196 20.718C261.485 20.765 261.372 21.2052 261.085 21.1585Z" fill="white"/>
<path d="M263.882 33.312C266.302 31.6201 267.996 29.078 268.626 26.1926C268.688 25.9066 269.129 26.0182 269.066 26.3037C268.406 29.3051 266.638 31.947 264.115 33.7021C263.874 33.8693 263.643 33.4783 263.882 33.312Z" fill="white"/>
<path d="M264.621 8.40632C265.153 8.61378 265.728 8.68587 266.295 8.6161C266.862 8.54634 267.402 8.33689 267.868 8.0066C268.106 7.83651 268.338 8.22772 268.101 8.3967C267.584 8.75922 266.987 8.9898 266.361 9.06826C265.735 9.14673 265.1 9.07069 264.51 8.84683C264.452 8.83039 264.404 8.79272 264.373 8.74148C264.342 8.69025 264.332 8.62928 264.345 8.57099C264.36 8.51273 264.398 8.46276 264.449 8.43192C264.501 8.40109 264.563 8.39189 264.621 8.40632Z" fill="white"/>
<path d="M300.449 16.3027C300.305 16.4138 300.157 16.5249 300.013 16.64C298.06 18.1346 296.232 19.7854 294.546 21.5761C294.415 21.7118 294.283 21.8517 294.155 21.9916L294.151 21.9957C290.155 26.3342 286.995 31.3741 284.83 36.8614L284.818 36.8985C284.814 36.9108 284.81 36.919 284.806 36.9314C283.948 39.1278 283.256 41.3855 282.737 43.6856C282.235 45.9315 281.823 48.3378 281.038 50.5014C280.918 50.8346 280.787 51.1637 280.647 51.4804H262.359C262.421 51.1555 262.486 50.8264 262.552 50.5014C263.483 45.7352 264.937 41.0863 266.888 36.6393C266.954 36.4912 267.019 36.3431 267.093 36.1951C268.101 33.9978 269.285 31.8861 270.635 29.881L270.635 29.8794L270.636 29.8781L270.638 29.8772L270.639 29.8769C271.38 28.7828 272.177 27.7271 273.025 26.7137C275.225 24.0963 277.823 21.842 280.725 20.0336C280.742 20.0212 280.762 20.013 280.779 20.0007C286.554 16.4179 293.399 14.7109 299.943 16.1876H299.947C300.116 16.2246 300.28 16.2616 300.449 16.3027Z" fill="#6C63FF"/>
<path d="M300.428 16.5208C300.288 16.5578 300.149 16.5989 300.013 16.6401C297.13 17.4638 294.347 18.6047 291.716 20.0418C291.585 20.1118 291.453 20.1858 291.321 20.2599C287.685 22.2894 284.384 24.8688 281.536 27.9066C281.533 27.9089 281.532 27.9118 281.531 27.9149C281.498 27.9478 281.461 27.9848 281.433 28.0177C280.775 28.7252 280.141 29.4615 279.541 30.2184C278.366 31.6296 277.419 33.216 276.735 34.92C276.213 36.3401 276.028 37.8626 276.196 39.3665C276.209 39.5187 276.229 39.6668 276.25 39.819C276.266 39.9383 276.283 40.0576 276.303 40.181C276.575 41.8304 277.044 43.484 276.912 45.1664C276.832 46.0284 276.57 46.8637 276.144 47.6174C275.718 48.371 275.137 49.0259 274.44 49.5389C273.966 49.9054 273.459 50.2276 272.926 50.5014C272.164 50.8943 271.37 51.2218 270.553 51.4804H268.936C269.154 51.4187 269.368 51.357 269.586 51.2953C270.36 51.0771 271.119 50.8119 271.861 50.5014C272.284 50.3243 272.697 50.121 273.095 49.8927C274.748 48.9425 276.126 47.4863 276.414 45.5407C276.665 43.8377 276.18 42.1348 275.892 40.4689C275.843 40.181 275.797 39.8971 275.773 39.6133C275.576 38.1707 275.696 36.7027 276.122 35.3107C276.714 33.5743 277.599 31.9522 278.738 30.5145C279.443 29.5785 280.196 28.6792 280.993 27.8202C281.091 27.7092 281.194 27.5981 281.301 27.4871C284.209 24.4274 287.568 21.8294 291.26 19.7827H291.264C294.009 18.2544 296.921 17.0481 299.943 16.1876H299.947C300.083 16.1464 300.223 16.1053 300.358 16.0683C300.642 15.9943 300.708 16.4426 300.428 16.5208Z" fill="white"/>
<path d="M281.138 27.9763C280.145 26.9274 279.557 25.5595 279.479 24.117C279.4 22.6744 279.838 21.251 280.712 20.101C280.89 19.869 281.259 20.1342 281.081 20.3666C280.265 21.436 279.857 22.7619 279.933 24.1051C280.008 25.4483 280.561 26.7203 281.492 27.6915C281.694 27.9028 281.339 28.1864 281.138 27.9763Z" fill="white"/>
<path d="M276.054 39.364C279.005 39.4705 281.888 38.4606 284.128 36.5358C284.35 36.3449 284.634 36.6991 284.413 36.8898C282.078 38.8884 279.076 39.9333 276.005 39.8157C275.712 39.8043 275.763 39.3527 276.054 39.364Z" fill="white"/>
<path d="M291.639 19.9232C291.939 20.4091 292.355 20.8129 292.849 21.0984C293.344 21.3839 293.901 21.5422 294.472 21.5589C294.765 21.5666 294.714 22.0182 294.423 22.0106C293.793 21.9892 293.177 21.8137 292.63 21.4995C292.083 21.1852 291.621 20.7418 291.285 20.208C291.249 20.1603 291.233 20.1008 291.239 20.0414C291.246 19.9821 291.274 19.9275 291.32 19.8886C291.367 19.8511 291.427 19.8337 291.486 19.8402C291.546 19.8467 291.601 19.8765 291.639 19.9232Z" fill="white"/>
<path d="M164.057 104.17C163.461 106.408 161.894 108.271 160.001 109.629C159.693 109.851 159.376 110.056 159.055 110.25C158.957 110.307 158.858 110.369 158.755 110.423C158.644 110.488 158.533 110.55 158.422 110.608H149.525C149.364 110.283 149.208 109.954 149.052 109.629C145.238 101.616 142.561 92.9695 143.017 84.1627C143.198 80.7468 143.916 77.3806 145.144 74.1878C147.587 67.8244 152.046 62.3165 158.179 59.5441C158.331 59.4742 158.492 59.4043 158.648 59.3384C158.599 59.5153 158.549 59.6881 158.5 59.865C157.842 62.2353 157.377 64.655 157.11 67.1004C157.085 67.2896 157.064 67.4788 157.048 67.6722C156.464 73.5697 156.982 79.5246 158.578 85.2322C158.582 85.2445 158.586 85.261 158.59 85.2734C158.94 86.5362 159.346 87.7798 159.808 89.0042C160.17 89.9708 160.561 90.9251 160.989 91.863C162.774 95.7995 165.168 99.9952 164.057 104.17Z" fill="#6C63FF"/>
<path d="M158.759 59.5235C158.673 59.6387 158.586 59.7498 158.5 59.865C156.693 62.2593 155.159 64.8475 153.926 67.5817C153.86 67.7174 153.798 67.8532 153.745 67.993C152.055 71.811 150.97 75.8688 150.528 80.0205C150.523 80.0491 150.521 80.078 150.52 80.1069C150.417 81.0777 150.355 82.0567 150.331 83.0357C150.239 84.8707 150.438 86.7086 150.919 88.4818C151.358 89.9298 152.127 91.2562 153.165 92.3566C153.268 92.4676 153.371 92.5787 153.482 92.6857C153.564 92.7721 153.654 92.8584 153.741 92.9407C154.572 93.7346 155.481 94.4709 156.262 95.3223C156.62 95.7042 156.944 96.1171 157.229 96.5564C157.684 97.2925 157.977 98.1167 158.091 98.9745C158.204 99.8323 158.135 100.704 157.887 101.534C157.328 103.615 156.048 105.371 154.74 107.045C154.086 107.885 153.412 108.732 152.828 109.629C152.614 109.95 152.416 110.274 152.235 110.608H151.717C151.89 110.274 152.079 109.95 152.285 109.629C153.786 107.264 155.921 105.231 157.027 102.628C157.776 100.871 158.002 98.8804 157.056 97.1569C156.779 96.6557 156.443 96.1891 156.057 95.7666C155.304 94.9151 154.403 94.187 153.584 93.4178C153.379 93.2245 153.177 93.0271 152.984 92.8214C151.959 91.78 151.168 90.532 150.664 89.1605C150.093 87.4186 149.823 85.5922 149.866 83.7596C149.866 82.5914 149.928 81.415 150.043 80.2468C150.055 80.0987 150.072 79.9465 150.088 79.7943C150.929 72.4431 153.723 65.451 158.179 59.5441C158.261 59.429 158.348 59.3179 158.434 59.2068C158.611 58.9765 158.936 59.2973 158.759 59.5235Z" fill="white"/>
<path d="M150.254 80.2857C148.829 80.0464 147.536 79.3085 146.605 78.2036C145.674 77.0988 145.166 75.6991 145.172 74.2544C145.173 74.1955 145.197 74.1392 145.238 74.0973C145.28 74.0555 145.336 74.0314 145.395 74.0301C145.454 74.0288 145.511 74.0504 145.554 74.0904C145.597 74.1304 145.623 74.1856 145.627 74.2444C145.619 75.5897 146.092 76.8936 146.961 77.9206C147.83 78.9476 149.037 79.6302 150.365 79.8452C150.654 79.8923 150.541 80.3325 150.254 80.2857Z" fill="white"/>
<path d="M153.051 92.4393C155.471 90.7474 157.165 88.2053 157.795 85.3199C157.857 85.034 158.297 85.1454 158.235 85.431C157.575 88.4324 155.806 91.0743 153.284 92.8294C153.043 92.9966 152.811 92.6055 153.051 92.4393Z" fill="white"/>
<path d="M153.79 67.5336C154.322 67.7411 154.897 67.8131 155.464 67.7434C156.03 67.6736 156.571 67.4642 157.037 67.1339C157.275 66.9638 157.506 67.355 157.27 67.524C156.753 67.8865 156.156 68.1171 155.53 68.1955C154.904 68.274 154.268 68.198 153.679 67.9741C153.621 67.9577 153.572 67.92 153.542 67.8688C153.511 67.8175 153.501 67.7566 153.514 67.6983C153.529 67.64 153.566 67.5901 153.618 67.5592C153.67 67.5284 153.731 67.5192 153.79 67.5336Z" fill="white"/>
<path d="M189.618 75.43C189.474 75.5411 189.326 75.6521 189.182 75.7673C187.229 77.2619 185.401 78.9127 183.715 80.7034C183.583 80.8391 183.452 80.979 183.324 81.1188L183.32 81.1229C179.324 85.4614 176.163 90.5014 173.999 95.9887L173.987 96.0257C173.983 96.0381 173.979 96.0463 173.975 96.0586C173.117 98.255 172.425 100.513 171.905 102.813C171.404 105.059 170.992 107.465 170.207 109.629C170.087 109.962 169.956 110.291 169.816 110.608H151.528C151.59 110.283 151.655 109.954 151.721 109.629C152.651 104.862 154.105 100.214 156.057 95.7666C156.122 95.6185 156.188 95.4704 156.262 95.3224C157.27 93.1251 158.454 91.0134 159.804 89.0083L159.804 89.0067L159.805 89.0054L159.806 89.0045L159.808 89.0042C160.549 87.9101 161.346 86.8544 162.194 85.841C164.394 83.2236 166.992 80.9693 169.894 79.1609C169.911 79.1485 169.931 79.1403 169.948 79.128C175.723 75.5452 182.567 73.8382 189.112 75.3149H189.116C189.285 75.3519 189.449 75.3889 189.618 75.43Z" fill="#6C63FF"/>
<path d="M189.597 75.648C189.457 75.685 189.317 75.7262 189.182 75.7673C186.299 76.591 183.516 77.7319 180.885 79.1691C180.753 79.239 180.622 79.313 180.49 79.3871C176.854 81.4166 173.553 83.996 170.704 87.0339C170.702 87.0361 170.701 87.039 170.7 87.0421C170.667 87.075 170.63 87.112 170.602 87.1449C169.943 87.8524 169.31 88.5887 168.709 89.3456C167.535 90.7568 166.588 92.3432 165.904 94.0472C165.381 95.4674 165.197 96.9898 165.365 98.4938C165.378 98.646 165.398 98.794 165.419 98.9462C165.435 99.0655 165.452 99.1848 165.472 99.3082C165.744 100.958 166.213 102.611 166.081 104.294C166.001 105.156 165.739 105.991 165.313 106.745C164.887 107.498 164.306 108.153 163.609 108.666C163.135 109.033 162.628 109.355 162.095 109.629C161.333 110.022 160.539 110.349 159.722 110.608H158.105C158.323 110.546 158.537 110.484 158.755 110.423C159.529 110.204 160.288 109.939 161.03 109.629C161.453 109.452 161.865 109.248 162.264 109.02C163.917 108.07 165.295 106.614 165.583 104.668C165.834 102.965 165.349 101.262 165.061 99.5961C165.011 99.3082 164.966 99.0244 164.942 98.7406C164.745 97.298 164.864 95.8299 165.291 94.438C165.883 92.7016 166.768 91.0794 167.907 89.6417C168.612 88.7057 169.364 87.8065 170.161 86.9475C170.26 86.8364 170.363 86.7254 170.47 86.6143C173.378 83.5547 176.736 80.9567 180.428 78.9099H180.433C183.178 77.3817 186.09 76.1754 189.112 75.3148H189.116C189.252 75.2737 189.391 75.2326 189.527 75.1955C189.811 75.1215 189.877 75.5698 189.597 75.648Z" fill="white"/>
<path d="M170.307 87.1036C169.314 86.0547 168.725 84.6868 168.647 83.2442C168.569 81.8016 169.007 80.3783 169.881 79.2283C170.059 78.9962 170.428 79.2615 170.25 79.4939C169.433 80.5633 169.026 81.8892 169.102 83.2324C169.177 84.5756 169.73 85.8475 170.661 86.8187C170.863 87.03 170.508 87.3137 170.307 87.1036Z" fill="white"/>
<path d="M165.223 98.4913C168.174 98.5978 171.057 97.5879 173.297 95.6631C173.519 95.4722 173.803 95.8264 173.582 96.017C171.247 98.0157 168.245 99.0605 165.174 98.943C164.881 98.9316 164.932 98.48 165.223 98.4913Z" fill="white"/>
<path d="M180.808 79.0504C181.108 79.5363 181.524 79.9402 182.018 80.2257C182.513 80.5112 183.07 80.6694 183.641 80.6861C183.934 80.6938 183.883 81.1455 183.592 81.1378C182.962 81.1164 182.346 80.9409 181.799 80.6267C181.252 80.3125 180.79 79.8691 180.454 79.3352C180.418 79.2876 180.402 79.228 180.408 79.1687C180.414 79.1094 180.443 79.0547 180.489 79.0158C180.536 78.9784 180.596 78.961 180.655 78.9675C180.715 78.9739 180.77 79.0037 180.808 79.0504Z" fill="white"/>
</svg>
