<svg width="225" height="231" viewBox="0 0 225 231" fill="none" xmlns="http://www.w3.org/2000/svg">
<path d="M55.7047 54.3065C54.5109 53.0748 54.5441 50.2009 54.7099 48.9179L49.2384 52.7669L50.2333 59.695L53.2177 58.9252V55.846L55.7047 54.3065Z" fill="#2F2E41"/>
<path d="M25.0223 54.92C26.7103 55.2246 28.3591 57.5787 28.9725 58.7177L31.1733 52.4004L26.3254 47.352L24.3496 49.7175L26.145 52.2191L25.0223 54.92Z" fill="#2F2E41"/>
<path d="M49.2707 68.0352L52.4716 51.0167L30.8811 43.5293L27.6841 69.3945L49.2707 68.0352Z" fill="#FFB6B6"/>
<path d="M41.2912 56.6654C53.2705 56.6654 62.9816 46.9542 62.9816 34.9749C62.9816 22.9956 53.2705 13.2845 41.2912 13.2845C29.3119 13.2845 19.6007 22.9956 19.6007 34.9749C19.6007 46.9542 29.3119 56.6654 41.2912 56.6654Z" fill="#FFB6B6"/>
<path d="M56.8517 41.1049C56.8517 41.1049 58.7378 34.5034 62.9816 34.975C64.3962 34.975 66.3472 30.8663 65.4041 28.9802C64.461 27.0941 64.3962 18.4714 64.3962 18.4714C64.3962 18.4714 65.3392 11.8699 59.6809 10.9269C54.0225 9.9838 52.1364 9.04074 51.1933 7.15461C50.2502 5.26848 36.1043 3.38236 31.389 6.21155C26.6737 9.04074 22.9014 14.4689 19.6007 15.9986C16.3 17.5283 13.4708 20.3575 15.3569 25.0728C17.243 29.7881 19.9785 39.0102 19.9785 39.0102C19.9785 39.0102 20.1401 41.3739 21.7566 43.5294C22.6997 46.3585 22.9014 39.2187 27.6167 31.6742C32.332 24.1297 32.332 16.5852 39.8765 19.4144C47.421 22.2436 55.9086 21.3005 54.9655 26.9589C54.0225 32.6173 56.8517 41.1049 56.8517 41.1049Z" fill="#2F2E41"/>
<path d="M149.673 150.883C148.47 151.057 147.244 150.964 146.081 150.613C144.917 150.262 143.845 149.66 142.94 148.849C142.034 148.039 141.317 147.04 140.84 145.923C140.362 144.805 140.135 143.597 140.174 142.382L112.599 131.785L125.084 122.854L149.356 134.287C151.392 134.489 153.284 135.431 154.672 136.934C156.06 138.438 156.848 140.399 156.887 142.445C156.926 144.491 156.213 146.48 154.883 148.035C153.553 149.591 151.699 150.604 149.672 150.883L149.673 150.883Z" fill="#FFB7B7"/>
<path d="M133.915 143.281L138.221 128.094L138.009 127.949L97.679 100.553L62.8163 65.5724L42.5081 73.6862L43.8416 80.114L43.9287 80.1929L90.2805 121.71L90.3234 121.731L133.915 143.281Z" fill="#3F3D56"/>
<path d="M92.6003 177.971L30.1845 169.222L35.6776 130.923H81.6286L92.6003 177.971Z" fill="#FFB6B6"/>
<path d="M28.4943 173.998L92.3114 176.202L86.9019 111.796C86.9019 111.796 84.1639 102.182 82.008 97.8968C80.1538 94.3745 79.8543 84.5701 76.1007 83.2453L66.8758 69.3825C65.4218 67.6279 63.5962 66.2182 61.5309 65.2553C59.4655 64.2924 57.2121 63.8003 54.9334 63.8146L25.5639 64.0154C24.8562 63.59 18.1983 63.9955 9.72981 67.665C9.60776 70.0774 5.04157 82.8879 5.06455 83.0268L5.08578 83.1569L5.18663 83.2453L24.7209 99.6993L28.4943 173.998Z" fill="#E6E6E6"/>
<path d="M210.071 112.673C185.575 140.181 111.873 145.428 63.8989 195.921C47.8152 147.115 70.5999 62.8649 93.3069 30.7361C104.211 15.3072 120.82 4.82666 139.479 1.59992C158.138 -1.62682 177.32 2.66461 192.804 13.5301C225.047 36.1564 236.246 83.28 210.071 112.673Z" fill="#6C63FF"/>
<path d="M150.914 85.9528C163.836 85.9528 174.312 75.4774 174.312 62.5553C174.312 49.6332 163.836 39.1577 150.914 39.1577C137.992 39.1577 127.517 49.6332 127.517 62.5553C127.517 75.4774 137.992 85.9528 150.914 85.9528Z" fill="white"/>
<path d="M41.9588 230.895C53.4217 230.895 62.7142 221.603 62.7142 210.14C62.7142 198.677 53.4217 189.385 41.9588 189.385C30.4959 189.385 21.2034 198.677 21.2034 210.14C21.2034 221.603 30.4959 230.895 41.9588 230.895Z" fill="#6C63FF"/>
<path d="M18.2147 208.639C17.3108 207.827 16.5959 206.827 16.1202 205.708C15.6445 204.59 15.4196 203.382 15.4613 202.167C15.5031 200.953 15.8104 199.763 16.3618 198.68C16.9131 197.597 17.6951 196.648 18.6526 195.9L9.11368 167.942L23.9753 171.802L30.7481 197.759C31.8988 199.451 32.3885 201.507 32.1243 203.537C31.8601 205.566 30.8604 207.429 29.3147 208.77C27.7689 210.112 25.7847 210.839 23.7381 210.815C21.6915 210.791 19.725 210.017 18.2112 208.64L18.2147 208.639Z" fill="#FFB7B7"/>
<path d="M13.9535 191.672L28.3728 185.246L23.5286 136.474L28.0402 87.2943L8.78817 76.9044L4.70915 82.0475V79.1322L0 127.781L2.55953 144.4L13.9535 191.672Z" fill="#E6E6E6"/>
<path opacity="0.2" d="M171.068 52.0264C173.853 56.679 174.852 62.1482 173.888 67.4553C172.923 72.7623 170.058 77.5607 165.804 80.9915C161.55 84.4224 156.186 86.2618 150.672 86.1806C145.157 86.0994 139.852 84.1028 135.706 80.5482C137.403 83.3891 139.712 85.8356 142.473 87.7181C145.233 89.6007 148.379 90.8743 151.693 91.4509C155.008 92.0275 158.41 91.8932 161.666 91.0573C164.922 90.2214 167.952 88.7039 170.549 86.6099C173.145 84.5159 175.244 81.8955 176.702 78.93C178.159 75.9645 178.939 72.7249 178.989 69.4355C179.038 66.1461 178.356 62.8855 176.988 59.8795C175.62 56.8735 173.6 54.1939 171.068 52.0264Z" fill="#231F20"/>
<path opacity="0.2" d="M199.323 19.2698C218.396 43.9596 221.686 79.4433 200.552 103.288C176.94 129.93 107.502 135.746 59.6638 181.76C60.4602 186.559 61.6101 191.292 63.104 195.921C110.966 145.305 184.497 140.046 208.936 112.471C232.867 85.47 225.482 43.5462 199.323 19.2698Z" fill="#231F20"/>
</svg>
