<svg width="30" height="35" viewBox="0 0 30 35" fill="none" xmlns="http://www.w3.org/2000/svg">
<path d="M16.532 18.2486C17.4216 17.831 18.0345 17.1568 18.3707 16.2259C18.7068 15.295 18.6661 14.3848 18.2486 13.4952C17.831 12.6055 17.1568 11.9927 16.2259 11.6565C15.295 11.3203 14.3848 11.361 13.4952 11.7786C12.6055 12.1962 11.9927 12.8704 11.6565 13.8013C11.3203 14.7321 11.361 15.6424 11.7786 16.532C12.1962 17.4216 12.8704 18.0345 13.8013 18.3707C14.7321 18.7068 15.6424 18.6661 16.532 18.2486ZM24.1241 34.4234C18.0503 32.7674 13.1985 30.8585 9.5685 28.6969C5.93854 26.5353 3.49089 24.1066 2.22554 21.4108C0.327507 17.3671 0.116139 13.535 1.59143 9.91469C3.06673 6.29436 5.51621 3.68069 8.93989 2.07369C12.3636 0.466693 15.9392 0.252297 19.6668 1.4305C23.3945 2.60871 26.2073 5.21967 28.1053 9.26339C29.3707 11.9592 29.6752 15.3939 29.0188 19.5674C28.3624 23.7409 26.7308 28.6929 24.1241 34.4234Z" fill="#084482"/>
</svg>
