<svg width="314" height="65" viewBox="0 0 314 65" fill="none" xmlns="http://www.w3.org/2000/svg">
<path d="M287.015 47.0343C288.495 47.0343 290.68 46.8925 292.129 47.0343H300.129C300.129 47.0343 311.073 47.6188 312.629 51.935L313.129 53.9932C313.093 54.7415 313.162 54.6006 313.129 55.4932C313.112 55.9334 309.629 63.4932 301.129 63.9932L70.2284 64.8741C53.5603 64.7576 36.9531 64.6109 20.8699 64.4382C17.8516 64.4453 14.8356 64.2654 11.8395 63.8995C7.36993 63.2906 4.26776 62.0835 2.35471 60.2091C-0.0242004 57.8849 -0.0997314 54.9581 0.0440674 51.6514C0.337128 44.9743 0.627747 37.9599 0.917786 30.9667C1.17398 24.8035 1.42899 18.6567 1.68396 12.7718C1.84167 9.27948 2.19214 6.19685 4.89371 3.84089C7.82187 1.29292 13.1622 0.00146484 20.7666 0.00146484C20.8584 0.00146484 20.9496 0.00148031 21.0427 0.00189165C44.8741 0.0995023 68.4869 9.53296 79.8002 23.4759C81.1029 25.0815 82.3168 26.8003 83.4909 28.463C85.2071 31.0153 87.1012 33.4433 89.1593 35.7289C90.3023 36.9608 91.5557 38.0856 92.9038 39.089C92.9956 39.1622 93.1008 39.2405 93.212 39.3148C93.4664 39.5056 93.7322 39.6896 93.9915 39.8535C95.4906 40.8528 97.0913 41.6906 98.7668 42.3528L98.9342 42.4175C99.0602 42.4694 99.1967 42.5212 99.3333 42.5686C100.299 42.9249 101.284 43.2278 102.283 43.476C106.595 44.5702 111.499 44.8325 116.857 44.2549C121.806 43.7038 126.671 42.5625 131.348 40.8553C136.31 39.0501 140.954 36.7994 145.446 34.623C147.418 33.6666 149.459 32.678 151.497 31.7412C151.88 31.5648 152.257 31.3925 152.639 31.2202C155.128 30.1035 157.384 29.1812 159.537 28.4007C164.826 26.4689 170.36 25.289 175.976 24.8955C181.903 24.5219 187.127 25.2265 191.497 26.9847C192.711 27.4722 193.885 28.0544 195.008 28.726C200.184 31.8207 203.376 36.3881 206.461 40.8051C210.3 46.2991 214.27 51.9808 222.108 54.926C231.153 58.3276 244.355 56.9144 253.695 54.4568C256.632 53.6839 259.565 52.795 262.401 51.935C263.547 51.5875 264.694 51.2424 265.841 50.8998C268.095 50.2297 269.94 49.7164 271.647 49.283L272.187 49.1447C272.487 49.0696 272.788 48.9945 273.094 48.923C275.122 48.433 277.01 48.0473 278.869 47.7441L279.309 47.6701C280.191 47.5364 281.015 47.4251 281.824 47.3315L282.147 47.2946C283.764 47.1198 285.389 47.0329 287.015 47.0343Z" fill="#B05044"/>
</svg>
