<svg width="252" height="196" viewBox="0 0 252 196" fill="none" xmlns="http://www.w3.org/2000/svg">
<path d="M132.5 186.001C198.498 186.001 252 175.256 252 162.001C252 148.747 198.498 138.001 132.5 138.001C66.502 138.001 13 148.747 13 162.001C13 175.256 66.502 186.001 132.5 186.001Z" fill="#B05044" fill-opacity="0.5"/>
<path d="M150.711 50.5757C149.492 49.3182 149.526 46.3842 149.695 45.0743L144.109 49.0039L145.125 56.077L148.172 55.2911V52.1475L150.711 50.5757Z" fill="#2F2E41"/>
<path d="M119.387 51.2021C121.11 51.513 122.793 53.9164 123.419 55.0792L125.666 48.6298L120.717 43.4757L118.7 45.8908L120.533 48.4447L119.387 51.2021Z" fill="#2F2E41"/>
<path d="M144.142 64.5917L147.41 47.217L125.368 39.573L122.104 65.9794L144.142 64.5917Z" fill="#FFB6B6"/>
<path d="M135.996 52.9839C148.226 52.9839 158.14 43.0696 158.14 30.8396C158.14 18.6097 148.226 8.69531 135.996 8.69531C123.766 8.69531 113.852 18.6097 113.852 30.8396C113.852 43.0696 123.766 52.9839 135.996 52.9839Z" fill="#FFB6B6"/>
<path d="M151.882 37.0978C151.882 37.0978 153.808 30.3582 158.14 30.8396C159.584 30.8396 161.576 26.6451 160.613 24.7195C159.651 22.7939 159.584 13.9907 159.584 13.9907C159.584 13.9907 160.547 7.25114 154.77 6.28835C148.994 5.32556 147.068 4.36276 146.105 2.43717C145.142 0.511575 130.7 -1.41402 125.886 1.47437C121.073 4.36276 117.221 9.90452 113.852 11.4662C110.482 13.0279 107.593 15.9163 109.519 20.7303C111.445 25.5443 114.237 34.9594 114.237 34.9594C114.237 34.9594 114.402 37.3725 116.053 39.573C117.015 42.4614 117.221 35.1722 122.035 27.4698C126.849 19.7675 126.849 12.0651 134.552 14.9535C142.254 17.8419 150.919 16.8791 149.956 22.6559C148.994 28.4326 151.882 37.0978 151.882 37.0978Z" fill="#2F2E41"/>
<path d="M61.8851 160.424C61.4093 159.409 61.1616 158.303 61.1597 157.182C61.1578 156.061 61.4016 154.954 61.874 153.937C62.3464 152.921 63.0358 152.021 63.8938 151.3C64.7518 150.579 65.7574 150.055 66.8398 149.765L99.5355 88.0731L112.733 98.2588L76.4441 155.697C76.8111 157.547 76.4866 159.468 75.5319 161.096C74.5772 162.723 73.0588 163.944 71.2642 164.527C69.4697 165.109 67.5237 165.013 65.7951 164.257C64.0665 163.501 62.6753 162.137 61.8851 160.424Z" fill="#FFB6B6"/>
<path d="M149.271 113.696L151.782 120.223L151.279 126.751L103.077 120.725L104.583 115.202L110.107 108.675L149.271 113.696Z" fill="#FFB6B6"/>
<path d="M115.128 67.5019L125.17 61.4766L145.254 59.4681L163.006 63.485L162.828 96.122L158.003 163.871C157.854 165.964 156.112 167.586 154.013 167.586H93.0915C90.6312 167.586 88.7541 165.386 89.1414 162.957L98.1813 106.252C98.1813 106.252 104.368 90.2517 106.181 78.6959L115.128 67.5019Z" fill="#E6E6E6"/>
<path d="M119.515 65.3623C119.515 65.3623 101.436 69.1307 99.4949 72.4736C96.0455 78.4136 87.5274 104.498 85.0916 113.719C83.7554 113.681 82.4447 114.089 81.3659 114.878C80.2871 115.668 79.5016 116.793 79.1331 118.078L97.6115 125.25C101.628 123.242 100.514 120.458 99.4949 119.018L106.377 108.695L114.411 104.679L117.743 69.1307L119.515 65.3623Z" fill="#E6E6E6"/>
<path d="M8.52793 94.7923L2.1719 92.2958C1.75377 92.1325 1.37198 91.8883 1.04833 91.5772C0.72469 91.2661 0.465563 90.8943 0.285784 90.483C0.106004 90.0716 0.00909139 89.6289 0.00060943 89.1801C-0.00787253 88.7312 0.0722575 88.2852 0.236367 87.8673C0.400477 87.4495 0.645341 87.0681 0.957002 86.745C1.26866 86.422 1.641 86.1635 2.05265 85.9845C2.46431 85.8055 2.90722 85.7093 3.35605 85.7017C3.80489 85.694 4.25086 85.7749 4.66839 85.9398L11.0244 88.4363C11.8657 88.7684 12.5408 89.4208 12.9015 90.2503C13.2622 91.0797 13.2791 92.0184 12.9484 92.8602C12.6178 93.7021 11.9666 94.3784 11.1378 94.7406C10.309 95.1028 9.37039 95.1214 8.52793 94.7923Z" fill="#B05044"/>
<path d="M184.308 148.853L29.2994 87.9705C28.3128 87.5838 27.2478 87.4401 26.194 87.5514C25.1402 87.6628 24.1286 88.026 23.2447 88.6105L17.0412 86.1739C16.3328 85.8956 15.5766 85.7597 14.8156 85.7737C14.0547 85.7877 13.3041 85.9515 12.6064 86.2556C11.9088 86.5598 11.2779 86.9984 10.7498 87.5464C10.2216 88.0943 9.8066 88.741 9.52838 89.4493L7.6038 94.3494C7.32557 95.0578 7.18959 95.814 7.20362 96.5749C7.21765 97.3358 7.38141 98.0865 7.68556 98.7842C7.98972 99.4818 8.42828 100.113 8.97626 100.641C9.52424 101.169 10.1709 101.584 10.8793 101.862L16.0385 103.889C15.6879 105.428 15.9004 107.043 16.6374 108.44C17.3745 109.837 18.5875 110.923 20.0566 111.503L175.065 172.386C176.701 173.028 178.524 172.995 180.135 172.292C181.746 171.59 183.011 170.277 183.654 168.642L188.053 157.442C188.695 155.806 188.661 153.983 187.959 152.372C187.257 150.761 185.944 149.496 184.308 148.853Z" fill="#3F3D56"/>
<path d="M220.971 194.943L162.696 172.055L175.02 140.678L233.295 163.567C235.867 164.581 237.932 166.574 239.037 169.109C240.142 171.643 240.197 174.513 239.189 177.088L234.491 189.048C233.478 191.621 231.485 193.686 228.95 194.791C226.415 195.896 223.546 195.951 220.971 194.943Z" fill="#2F2E41"/>
<path d="M230.166 187.991L201.774 176.84C200.339 176.274 199.187 175.163 198.57 173.749C197.954 172.335 197.924 170.734 198.487 169.297L199.367 167.056C199.932 165.62 201.044 164.468 202.458 163.851C203.872 163.235 205.473 163.204 206.909 163.766L235.301 174.918C236.736 175.483 237.888 176.595 238.504 178.009C239.121 179.423 239.151 181.024 238.588 182.46L237.707 184.702C237.142 186.137 236.031 187.29 234.617 187.907C233.203 188.523 231.602 188.554 230.166 187.991Z" fill="#B05044"/>
<path d="M135.089 147.3C135.494 147.391 135.891 147.514 136.276 147.667L166.912 126.579L166.211 117.571L179.668 114.736L182.458 130.563C182.684 131.841 182.489 133.158 181.902 134.316C181.315 135.475 180.368 136.411 179.204 136.985L141.255 155.701C141.111 157.293 140.486 158.803 139.462 160.032C138.439 161.26 137.066 162.147 135.526 162.576C133.986 163.005 132.352 162.954 130.841 162.432C129.33 161.909 128.014 160.939 127.068 159.65C126.123 158.361 125.591 156.815 125.546 155.217C125.5 153.619 125.942 152.045 126.812 150.704C127.683 149.364 128.941 148.32 130.42 147.712C131.898 147.104 133.527 146.96 135.089 147.3Z" fill="#FFB6B6"/>
<path d="M163.889 127.259L180.961 137.301C184.978 135.293 184.201 122.267 181.749 121.504L178.183 73.3624C172.849 64.9913 155.798 61.8066 155.798 61.8066V64.9913L160.819 86.0798L166.274 122.466C165.533 123.027 164.932 123.751 164.518 124.582C164.105 125.414 163.889 126.33 163.889 127.259Z" fill="#E6E6E6"/>
</svg>
