<svg width="254" height="196" viewBox="0 0 254 196" fill="none" xmlns="http://www.w3.org/2000/svg">
<path d="M132.5 186C198.498 186 252 175.255 252 162C252 148.745 198.498 138 132.5 138C66.502 138 13 148.745 13 162C13 175.255 66.502 186 132.5 186Z" fill="#F5F5F5" stroke="#F5F5F5" stroke-width="3" stroke-miterlimit="10"/>
<path d="M150.711 50.5742C149.492 49.3167 149.526 46.3827 149.695 45.0728L144.109 49.0024L145.125 56.0755L148.172 55.2896V52.146L150.711 50.5742Z" fill="#2F2E41"/>
<path d="M119.386 51.2006C121.11 51.5115 122.793 53.9149 123.419 55.0777L125.666 48.6282L120.717 43.4742L118.7 45.8892L120.533 48.4431L119.386 51.2006Z" fill="#2F2E41"/>
<path d="M144.142 64.5902L147.41 47.2156L125.368 39.5715L122.104 65.9779L144.142 64.5902Z" fill="#FFB6B6"/>
<path d="M135.996 52.9824C148.226 52.9824 158.14 43.0681 158.14 30.8381C158.14 18.6082 148.226 8.69385 135.996 8.69385C123.766 8.69385 113.851 18.6082 113.851 30.8381C113.851 43.0681 123.766 52.9824 135.996 52.9824Z" fill="#FFB6B6"/>
<path d="M151.882 37.0963C151.882 37.0963 153.807 30.3568 158.14 30.8382C159.584 30.8382 161.576 26.6436 160.613 24.718C159.65 22.7924 159.584 13.9892 159.584 13.9892C159.584 13.9892 160.547 7.24968 154.77 6.28689C148.993 5.32409 147.068 4.36129 146.105 2.4357C145.142 0.51011 130.7 -1.41548 125.886 1.47291C121.072 4.36129 117.221 9.90305 113.851 11.4648C110.482 13.0265 107.593 15.9148 109.519 20.7288C111.444 25.5428 114.237 34.9579 114.237 34.9579C114.237 34.9579 114.402 37.371 116.052 39.5716C117.015 42.46 117.221 35.1707 122.035 27.4684C126.849 19.766 126.849 12.0637 134.552 14.952C142.254 17.8404 150.919 16.8776 149.956 22.6544C148.993 28.4312 151.882 37.0963 151.882 37.0963Z" fill="#2F2E41"/>
<path d="M61.8851 160.422C61.4092 159.408 61.1615 158.301 61.1596 157.18C61.1577 156.06 61.4015 154.952 61.8739 153.936C62.3463 152.92 63.0358 152.019 63.8937 151.298C64.7517 150.577 65.7573 150.053 66.8398 149.763L99.5355 88.0716L112.733 98.2573L76.444 155.695C76.8111 157.546 76.4865 159.467 75.5318 161.094C74.5771 162.722 73.0587 163.942 71.2641 164.525C69.4696 165.108 67.5236 165.012 65.795 164.256C64.0664 163.5 62.6752 162.136 61.8851 160.422Z" fill="#FFB6B6"/>
<path d="M149.271 113.694L151.781 120.222L151.279 126.749L103.077 120.724L104.583 115.201L110.107 108.673L149.271 113.694Z" fill="#FFB6B6"/>
<path d="M115.128 67.5003L125.17 61.4751L145.254 59.4666L163.006 63.4835L162.828 96.1205L158.003 163.869C157.854 165.963 156.112 167.585 154.013 167.585H93.0916C90.6313 167.585 88.7542 165.385 89.1415 162.955L98.1814 106.25C98.1814 106.25 104.369 90.2502 106.182 78.6944L115.128 67.5003Z" fill="#E6E6E6"/>
<path d="M163.89 127.257L180.961 137.3C184.978 135.291 184.202 122.266 181.749 121.503L178.183 73.361C172.849 64.9899 155.799 61.8052 155.799 61.8052V64.9899L160.82 86.0784L166.274 122.465C165.533 123.025 164.932 123.749 164.519 124.581C164.105 125.413 163.89 126.329 163.89 127.257Z" fill="#E6E6E6"/>
<path d="M119.515 65.3608C119.515 65.3608 101.436 69.1292 99.4951 72.4721C96.0456 78.4121 87.5275 104.497 85.0917 113.717C83.7556 113.68 82.4448 114.088 81.366 114.877C80.2873 115.666 79.5017 116.792 79.1332 118.077L97.6116 125.249C101.628 123.241 100.514 120.457 99.4951 119.017L106.377 108.694L114.411 104.677L117.743 69.1292L119.515 65.3608Z" fill="#E6E6E6"/>
<path d="M8.52793 94.7908L2.1719 92.2943C1.75377 92.131 1.37198 91.8868 1.04833 91.5757C0.72469 91.2646 0.465563 90.8928 0.285784 90.4815C0.106004 90.0701 0.00909139 89.6274 0.00060943 89.1786C-0.00787253 88.7298 0.0722575 88.2837 0.236367 87.8658C0.400477 87.448 0.645341 87.0666 0.957001 86.7436C1.26866 86.4205 1.641 86.162 2.05265 85.983C2.46431 85.804 2.90722 85.7079 3.35605 85.7002C3.80489 85.6925 4.25086 85.7734 4.66839 85.9383L11.0244 88.4348C11.8657 88.767 12.5408 89.4193 12.9015 90.2488C13.2622 91.0782 13.2791 92.0169 12.9484 92.8588C12.6178 93.7006 11.9666 94.3769 11.1378 94.7391C10.309 95.1013 9.37039 95.1199 8.52793 94.7908Z" fill="#F2DA69"/>
<path d="M184.308 148.852L29.2995 87.969C28.3129 87.5823 27.2478 87.4386 26.194 87.55C25.1403 87.6614 24.1287 88.0246 23.2448 88.609L17.0412 86.1724C16.3329 85.8942 15.5766 85.7582 14.8157 85.7722C14.0548 85.7863 13.3041 85.95 12.6065 86.2542C11.9089 86.5583 11.2779 86.9969 10.7498 87.5449C10.2217 88.0929 9.80666 88.7395 9.52844 89.4479L7.60386 94.3479C7.32563 95.0563 7.18965 95.8125 7.20368 96.5735C7.21771 97.3344 7.38147 98.0851 7.68562 98.7827C7.98978 99.4803 8.42834 100.111 8.97632 100.639C9.5243 101.167 10.171 101.583 10.8793 101.861L16.0386 103.887C15.688 105.427 15.9004 107.042 16.6375 108.438C17.3746 109.835 18.5875 110.922 20.0566 111.501L175.065 172.384C176.701 173.027 178.524 172.993 180.135 172.291C181.746 171.589 183.011 170.276 183.654 168.64L188.053 157.44C188.695 155.805 188.661 153.981 187.959 152.371C187.257 150.76 185.944 149.494 184.308 148.852Z" fill="#3F3D56"/>
<path d="M220.971 194.942L162.696 172.053L175.02 140.677L233.295 163.565C235.867 164.579 237.932 166.572 239.037 169.107C240.142 171.642 240.197 174.511 239.189 177.086L234.492 189.047C233.478 191.619 231.485 193.684 228.95 194.79C226.415 195.895 223.546 195.95 220.971 194.942Z" fill="#2F2E41"/>
<path d="M230.166 187.99L201.774 176.838C200.339 176.273 199.187 175.161 198.57 173.747C197.954 172.333 197.924 170.732 198.487 169.296L199.367 167.054C199.932 165.619 201.044 164.466 202.458 163.85C203.872 163.233 205.473 163.203 206.909 163.765L235.301 174.916C236.736 175.482 237.888 176.594 238.504 178.008C239.12 179.422 239.151 181.023 238.588 182.459L237.707 184.701C237.142 186.136 236.031 187.288 234.617 187.905C233.203 188.522 231.602 188.552 230.166 187.99Z" fill="#F2DA69"/>
<path d="M135.089 147.298C135.494 147.389 135.891 147.512 136.276 147.665L166.912 126.578L166.211 117.57L179.668 114.735L182.458 130.561C182.684 131.84 182.488 133.157 181.902 134.315C181.315 135.473 180.368 136.41 179.204 136.984L141.255 155.699C141.111 157.291 140.486 158.802 139.462 160.03C138.439 161.258 137.066 162.146 135.526 162.574C133.986 163.003 132.352 162.953 130.841 162.43C129.33 161.907 128.014 160.937 127.068 159.649C126.122 158.36 125.591 156.814 125.546 155.216C125.5 153.618 125.942 152.044 126.812 150.703C127.683 149.362 128.941 148.318 130.42 147.71C131.898 147.102 133.527 146.958 135.089 147.298Z" fill="#FFB6B6"/>
</svg>
