<svg width="32" height="65" viewBox="0 0 32 65" fill="none" xmlns="http://www.w3.org/2000/svg">
<path d="M2.55678 5.51316L9.07623 3.5831L9.68573 5.64188L3.16628 7.57194L2.55678 5.51316Z" fill="#B05044"/>
<path d="M1.60072 1.96998L7.95061 0.0917445C8.51154 -0.0741327 9.11514 -0.0134709 9.63185 0.260693C10.1486 0.534857 10.5372 1.00067 10.7143 1.55816C10.8914 2.11564 10.8429 2.72034 10.5792 3.24246C10.3155 3.76458 9.85758 4.16249 9.30377 4.35078C9.27657 4.36236 9.24861 4.37206 9.22008 4.37978L2.87019 6.26123C2.84303 6.27071 2.81491 6.27719 2.78634 6.28056H2.78304C2.21583 6.4239 1.61504 6.33914 1.10961 6.0445C0.604177 5.74986 0.234402 5.26881 0.0796502 4.70461C-0.0751011 4.14041 -0.00249647 3.53803 0.281884 3.02676C0.566264 2.51549 1.03975 2.13608 1.60072 1.96998Z" fill="#B05044"/>
<path d="M2.66065 6.97641L2.96347 6.8862L9.48418 4.95643L9.57761 4.92743L12.1131 5.7103L17.6898 20.9713L23.8882 37.9301L31.0982 57.6596C31.1827 57.8795 31.22 58.1148 31.2078 58.3501C31.1956 58.5854 31.1342 58.8155 31.0274 59.0256C30.9226 59.2371 30.7752 59.4247 30.5944 59.5766C30.4137 59.7285 30.2035 59.8414 29.9771 59.9083L15.6859 64.1383C15.4622 64.2041 15.2276 64.2237 14.9961 64.196C14.7647 64.1684 14.5413 64.094 14.3395 63.9774C14.1376 63.8608 13.9615 63.7045 13.8219 63.5178C13.6823 63.3311 13.5821 63.1181 13.5273 62.8915L8.7239 42.8689L4.50019 25.269L0.634197 9.15747L0.621312 9.10915L2.66065 6.97641Z" fill="#E4E4E4"/>
<path d="M4.50028 25.2689L8.72388 42.8688L23.8882 37.93L17.6898 20.9712L4.50028 25.2689Z" fill="#B05044"/>
</svg>
