<svg width="36" height="51" viewBox="0 0 36 51" fill="none" xmlns="http://www.w3.org/2000/svg">
<path d="M32.7765 5.19209C32.6687 5.19209 32.5622 5.19788 32.4571 5.20822C32.557 4.63581 32.5002 4.04703 32.2928 3.50425C32.0854 2.96146 31.7351 2.48487 31.2789 2.12493C30.8228 1.76499 30.2778 1.5351 29.7016 1.45961C29.1255 1.38412 28.5396 1.46584 28.0061 1.69611C27.4727 1.92638 27.0114 2.29662 26.6711 2.76765C26.3309 3.23868 26.1243 3.79295 26.0733 4.37178C26.0224 4.9506 26.1289 5.53244 26.3816 6.05568C26.6343 6.57891 27.0238 7.02407 27.5088 7.34402C27.2699 7.48773 27.0658 7.68282 26.9116 7.91517C26.7574 8.14751 26.6568 8.41127 26.6172 8.68732C26.5776 8.96336 26.5999 9.24476 26.6825 9.5111C26.7652 9.77744 26.9061 10.022 27.095 10.2272C27.2839 10.4323 27.5161 10.5928 27.7748 10.697C28.0335 10.8013 28.3121 10.8466 28.5904 10.8298C28.8688 10.8129 29.1399 10.7344 29.3842 10.5997C29.6284 10.4651 29.8396 10.2778 30.0024 10.0514C30.2891 10.5375 30.6986 10.9398 31.1896 11.218C31.6807 11.4962 32.2363 11.6405 32.8006 11.6365C33.365 11.6325 33.9184 11.4803 34.4055 11.1952C34.8926 10.91 35.2963 10.502 35.5761 10.0118C35.8559 9.5217 36.0021 8.96665 36 8.40226C35.9979 7.83786 35.8475 7.28393 35.5641 6.79589C35.2806 6.30785 34.8739 5.90283 34.3847 5.62137C33.8955 5.33991 33.3409 5.19187 32.7765 5.19209Z" fill="#F2DA69"/>
<path d="M30.4778 10.6398L25.8271 7.97124L24.9843 9.43989L29.6351 12.1085L30.4778 10.6398Z" fill="#CACACA"/>
<path d="M24.5035 0.753358C24.2355 0.370467 23.8268 0.10941 23.3667 0.0274039C22.9066 -0.0546018 22.4328 0.0491355 22.0491 0.315876L17.7647 3.29999C17.3809 3.56744 17.1192 3.97637 17.0369 4.43683C16.9547 4.89729 17.0587 5.37155 17.3262 5.7553C17.5936 6.13904 18.0026 6.40083 18.463 6.48306C18.9235 6.5653 19.3977 6.46125 19.7815 6.19381L24.066 3.20969C24.449 2.94138 24.7101 2.53224 24.7921 2.07187C24.8741 1.61149 24.7703 1.13738 24.5035 0.753358Z" fill="#CACACA"/>
<path d="M30.1326 11.7426L29.9159 11.6182L25.2661 8.95116L25.1959 8.91102L23.1108 9.0515L15.794 19.9203L9.50261 29.266L0.957722 41.9591C0.854605 42.1135 0.784302 42.2875 0.751172 42.4702C0.718042 42.6529 0.722793 42.8405 0.765126 43.0213C0.807459 43.2021 0.886473 43.3723 0.997273 43.5213C1.10807 43.6703 1.2483 43.795 1.40925 43.8876L11.6038 49.7374C11.7633 49.8295 11.9399 49.888 12.1228 49.9094C12.3058 49.9308 12.4911 49.9146 12.6676 49.8618C12.844 49.809 13.0078 49.7207 13.1489 49.6024C13.29 49.484 13.4055 49.3381 13.4882 49.1735L20.3514 35.5293L25.4106 25.4732L31.2906 13.7856L31.3086 13.7514L30.1326 11.7426Z" fill="#E4E4E4"/>
<path d="M14.3745 48.354L1.34311 40.8303L-6.71487e-06 43.1566L13.0314 50.6803L14.3745 48.354Z" fill="#CACACA"/>
<path d="M25.4106 25.4731L20.3514 35.5292L9.50263 29.266L15.794 19.9203L25.4106 25.4731Z" fill="#F2DA69"/>
</svg>
