<svg width="292" height="433" viewBox="0 0 292 433" fill="none" xmlns="http://www.w3.org/2000/svg">
<path d="M21.9697 454.639L173.521 263.331L173.403 145.332L228.692 41.845L243.126 1.20406C243.126 1.20406 291.775 -0.753422 255.24 83.6957L243.782 128.158C257.393 154.023 255.936 183.008 257.389 212.2L262.383 312.528C263.559 336.153 166.648 469.978 154.522 490.287L21.9697 454.639Z" fill="#FCBEBE"/>
<path d="M241.41 48.8847L228.672 42.9864L244.081 0.692301C250.389 1.49811 254.464 2.50839 255.783 4.30913L241.41 48.8847Z" fill="#E3ABAB"/>
<path d="M249.243 101.462L236.601 160.995C244.8 172.028 260.06 200.735 255.508 227.306" stroke="#E3ABAB" stroke-width="2"/>
</svg>
