<svg width="20" height="20" viewBox="0 0 20 20" fill="none" xmlns="http://www.w3.org/2000/svg">
<path fill-rule="evenodd" clip-rule="evenodd" d="M1 0C0.447715 0 0 0.447715 0 1V19C0 19.5523 0.447715 20 1 20L7.58882 20C7.58882 19.9491 7.58991 19.8562 7.59125 19.7411C7.59621 19.3171 7.60467 18.5937 7.57504 18.5788C3.85396 19.6771 3.36137 17.2323 3.36137 17.2323C2.91841 16.072 2.28061 15.7625 2.28061 15.7625C1.39744 15.1392 2.3477 15.1518 2.3477 15.1518C3.32461 15.2229 3.83834 16.1871 3.83834 16.1871C4.7068 17.7225 7.05211 16.9346 7.60628 16.6773C7.60628 15.0942 9.15941 14.1525 9.15941 14.1525C6.99882 13.8988 4.72702 13.0371 4.72702 9.18736C4.72702 8.09089 5.10565 7.19411 5.72874 6.49162C5.62857 6.23706 5.29405 5.21526 5.82432 3.83275C5.82432 3.83275 6.64132 3.56291 8.50048 4.86266C9.27612 4.63959 10.1087 4.52806 10.9359 4.52446C11.763 4.52806 12.5956 4.63959 13.3722 4.86266C15.2304 3.56291 16.0465 3.83275 16.0465 3.83275C16.5767 5.21526 16.2431 6.23706 16.143 6.49162C16.767 7.19411 17.1429 8.09089 17.1429 9.18736C17.1429 13.047 14.8674 13.8961 12.6994 14.1444C12.7481 14.1876 12.8142 14.2371 12.8918 14.2953C13.3722 14.6556 14.2958 15.3484 14.2958 16.9211C14.2958 17.6641 14.2847 20 14.2847 20L19 20C19.5523 20 20 19.5523 20 19V1C20 0.447715 19.5523 0 19 0H1Z" fill="white"/>
</svg>
