<svg width="446" height="226" viewBox="0 0 446 226" fill="none" xmlns="http://www.w3.org/2000/svg">
<path d="M0 147.524C4.91877 153.357 10.239 158.839 15.9217 163.93L429.58 164.496C435.263 159.406 440.583 153.924 445.502 148.09L0 147.524Z" fill="#3F3D56"/>
<path d="M280.515 94.9907V143.559C280.516 144.178 280.762 144.772 281.199 145.209C281.636 145.647 282.229 145.893 282.847 145.894H354.758C355.376 145.893 355.969 145.647 356.407 145.209C356.844 144.772 357.09 144.178 357.09 143.559V94.9907C357.089 94.3723 356.843 93.7797 356.405 93.3426C355.968 92.9056 355.376 92.6598 354.758 92.659H282.847C282.23 92.6598 281.637 92.9056 281.2 93.3427C280.763 93.7797 280.517 94.3723 280.515 94.9907Z" fill="#3F3D56"/>
<path d="M282.202 95.595V142.96C282.203 143.291 282.334 143.608 282.568 143.842C282.801 144.075 283.118 144.207 283.449 144.208H354.159C354.49 144.207 354.807 144.075 355.04 143.842C355.274 143.608 355.405 143.291 355.406 142.96V95.595C355.406 95.2639 355.275 94.9463 355.041 94.712C354.807 94.4776 354.49 94.3456 354.159 94.3448H283.449C283.118 94.3456 282.801 94.4776 282.567 94.712C282.333 94.9463 282.202 95.2639 282.202 95.595Z" fill="#2F2E41"/>
<path d="M279.011 153.031C279.143 153.197 279.31 153.33 279.501 153.421C279.692 153.513 279.9 153.559 280.112 153.558H357.111C357.322 153.558 357.529 153.511 357.72 153.42C357.91 153.329 358.077 153.197 358.21 153.034C358.342 152.87 358.437 152.679 358.486 152.474C358.536 152.269 358.539 152.056 358.496 151.849L357.301 146.167C357.251 145.935 357.145 145.72 356.99 145.54C356.836 145.36 356.64 145.221 356.419 145.137C356.258 145.074 356.088 145.042 355.916 145.042H281.302C281.13 145.042 280.96 145.074 280.799 145.137C280.578 145.221 280.381 145.36 280.227 145.54C280.073 145.72 279.967 145.935 279.917 146.167L278.722 151.849C278.679 152.056 278.683 152.269 278.733 152.473C278.783 152.678 278.878 152.868 279.011 153.031Z" fill="#2F2E41"/>
<path d="M353.274 147.489H355.092C355.245 147.489 355.369 147.366 355.369 147.213V146.342C355.369 146.189 355.245 146.065 355.092 146.065H353.274C353.121 146.065 352.997 146.189 352.997 146.342V147.213C352.997 147.366 353.121 147.489 353.274 147.489Z" fill="#3F3D56"/>
<path d="M348.531 147.489H350.349C350.502 147.489 350.626 147.366 350.626 147.213V146.342C350.626 146.189 350.502 146.065 350.349 146.065H348.531C348.378 146.065 348.254 146.189 348.254 146.342V147.213C348.254 147.366 348.378 147.489 348.531 147.489Z" fill="#3F3D56"/>
<path d="M343.787 147.489H345.606C345.759 147.489 345.883 147.366 345.883 147.213V146.342C345.883 146.189 345.759 146.065 345.606 146.065H343.787C343.635 146.065 343.511 146.189 343.511 146.342V147.213C343.511 147.366 343.635 147.489 343.787 147.489Z" fill="#3F3D56"/>
<path d="M339.045 147.489H340.863C341.016 147.489 341.14 147.366 341.14 147.213V146.342C341.14 146.189 341.016 146.065 340.863 146.065H339.045C338.892 146.065 338.768 146.189 338.768 146.342V147.213C338.768 147.366 338.892 147.489 339.045 147.489Z" fill="#3F3D56"/>
<path d="M334.302 147.489H336.12C336.273 147.489 336.397 147.366 336.397 147.213V146.342C336.397 146.189 336.273 146.065 336.12 146.065H334.302C334.149 146.065 334.025 146.189 334.025 146.342V147.213C334.025 147.366 334.149 147.489 334.302 147.489Z" fill="#3F3D56"/>
<path d="M329.558 147.489H331.377C331.53 147.489 331.653 147.366 331.653 147.213V146.342C331.653 146.189 331.53 146.065 331.377 146.065H329.558C329.406 146.065 329.282 146.189 329.282 146.342V147.213C329.282 147.366 329.406 147.489 329.558 147.489Z" fill="#3F3D56"/>
<path d="M324.815 147.489H326.634C326.787 147.489 326.91 147.366 326.91 147.213V146.342C326.91 146.189 326.787 146.065 326.634 146.065H324.815C324.662 146.065 324.539 146.189 324.539 146.342V147.213C324.539 147.366 324.662 147.489 324.815 147.489Z" fill="#3F3D56"/>
<path d="M320.072 147.489H321.891C322.043 147.489 322.167 147.366 322.167 147.213V146.342C322.167 146.189 322.043 146.065 321.891 146.065H320.072C319.919 146.065 319.796 146.189 319.796 146.342V147.213C319.796 147.366 319.919 147.489 320.072 147.489Z" fill="#3F3D56"/>
<path d="M315.329 147.489H317.148C317.3 147.489 317.424 147.366 317.424 147.213V146.342C317.424 146.189 317.3 146.065 317.148 146.065H315.329C315.176 146.065 315.053 146.189 315.053 146.342V147.213C315.053 147.366 315.176 147.489 315.329 147.489Z" fill="#3F3D56"/>
<path d="M310.586 147.489H312.405C312.557 147.489 312.681 147.366 312.681 147.213V146.342C312.681 146.189 312.557 146.065 312.405 146.065H310.586C310.433 146.065 310.309 146.189 310.309 146.342V147.213C310.309 147.366 310.433 147.489 310.586 147.489Z" fill="#3F3D56"/>
<path d="M305.843 147.489H307.662C307.814 147.489 307.938 147.366 307.938 147.213V146.342C307.938 146.189 307.814 146.065 307.662 146.065H305.843C305.69 146.065 305.566 146.189 305.566 146.342V147.213C305.566 147.366 305.69 147.489 305.843 147.489Z" fill="#3F3D56"/>
<path d="M301.1 147.489H302.918C303.071 147.489 303.195 147.366 303.195 147.213V146.342C303.195 146.189 303.071 146.065 302.918 146.065H301.1C300.947 146.065 300.823 146.189 300.823 146.342V147.213C300.823 147.366 300.947 147.489 301.1 147.489Z" fill="#3F3D56"/>
<path d="M296.357 147.489H298.175C298.328 147.489 298.452 147.366 298.452 147.213V146.342C298.452 146.189 298.328 146.065 298.175 146.065H296.357C296.204 146.065 296.08 146.189 296.08 146.342V147.213C296.08 147.366 296.204 147.489 296.357 147.489Z" fill="#3F3D56"/>
<path d="M291.614 147.489H293.432C293.585 147.489 293.709 147.366 293.709 147.213V146.342C293.709 146.189 293.585 146.065 293.432 146.065H291.614C291.461 146.065 291.337 146.189 291.337 146.342V147.213C291.337 147.366 291.461 147.489 291.614 147.489Z" fill="#3F3D56"/>
<path d="M286.87 147.489H288.689C288.842 147.489 288.966 147.366 288.966 147.213V146.342C288.966 146.189 288.842 146.065 288.689 146.065H286.87C286.718 146.065 286.594 146.189 286.594 146.342V147.213C286.594 147.366 286.718 147.489 286.87 147.489Z" fill="#3F3D56"/>
<path d="M282.127 147.489H283.946C284.099 147.489 284.222 147.366 284.222 147.213V146.342C284.222 146.189 284.099 146.065 283.946 146.065H282.127C281.975 146.065 281.851 146.189 281.851 146.342V147.213C281.851 147.366 281.975 147.489 282.127 147.489Z" fill="#3F3D56"/>
<path d="M353.33 149.863H355.148C355.301 149.863 355.425 149.739 355.425 149.586V148.715C355.425 148.563 355.301 148.439 355.148 148.439H353.33C353.177 148.439 353.053 148.563 353.053 148.715V149.586C353.053 149.739 353.177 149.863 353.33 149.863Z" fill="#3F3D56"/>
<path d="M348.587 149.863H350.405C350.558 149.863 350.682 149.739 350.682 149.586V148.715C350.682 148.563 350.558 148.439 350.405 148.439H348.587C348.434 148.439 348.31 148.563 348.31 148.715V149.586C348.31 149.739 348.434 149.863 348.587 149.863Z" fill="#3F3D56"/>
<path d="M343.844 149.863H345.662C345.815 149.863 345.939 149.739 345.939 149.586V148.715C345.939 148.563 345.815 148.439 345.662 148.439H343.844C343.691 148.439 343.567 148.563 343.567 148.715V149.586C343.567 149.739 343.691 149.863 343.844 149.863Z" fill="#3F3D56"/>
<path d="M339.1 149.863H340.919C341.072 149.863 341.196 149.739 341.196 149.586V148.715C341.196 148.563 341.072 148.439 340.919 148.439H339.1C338.948 148.439 338.824 148.563 338.824 148.715V149.586C338.824 149.739 338.948 149.863 339.1 149.863Z" fill="#3F3D56"/>
<path d="M334.358 149.863H336.176C336.329 149.863 336.453 149.739 336.453 149.586V148.715C336.453 148.563 336.329 148.439 336.176 148.439H334.358C334.205 148.439 334.081 148.563 334.081 148.715V149.586C334.081 149.739 334.205 149.863 334.358 149.863Z" fill="#3F3D56"/>
<path d="M329.614 149.863H331.433C331.586 149.863 331.709 149.739 331.709 149.586V148.715C331.709 148.563 331.586 148.439 331.433 148.439H329.614C329.462 148.439 329.338 148.563 329.338 148.715V149.586C329.338 149.739 329.462 149.863 329.614 149.863Z" fill="#3F3D56"/>
<path d="M324.871 149.863H326.69C326.843 149.863 326.966 149.739 326.966 149.586V148.715C326.966 148.563 326.843 148.439 326.69 148.439H324.871C324.719 148.439 324.595 148.563 324.595 148.715V149.586C324.595 149.739 324.719 149.863 324.871 149.863Z" fill="#3F3D56"/>
<path d="M320.128 149.863H321.947C322.099 149.863 322.223 149.739 322.223 149.586V148.715C322.223 148.563 322.099 148.439 321.947 148.439H320.128C319.975 148.439 319.852 148.563 319.852 148.715V149.586C319.852 149.739 319.975 149.863 320.128 149.863Z" fill="#3F3D56"/>
<path d="M315.385 149.863H317.204C317.356 149.863 317.48 149.739 317.48 149.586V148.715C317.48 148.563 317.356 148.439 317.204 148.439H315.385C315.232 148.439 315.109 148.563 315.109 148.715V149.586C315.109 149.739 315.232 149.863 315.385 149.863Z" fill="#3F3D56"/>
<path d="M310.642 149.863H312.461C312.613 149.863 312.737 149.739 312.737 149.586V148.715C312.737 148.563 312.613 148.439 312.461 148.439H310.642C310.489 148.439 310.366 148.563 310.366 148.715V149.586C310.366 149.739 310.489 149.863 310.642 149.863Z" fill="#3F3D56"/>
<path d="M305.899 149.863H307.718C307.87 149.863 307.994 149.739 307.994 149.586V148.715C307.994 148.563 307.87 148.439 307.718 148.439H305.899C305.746 148.439 305.622 148.563 305.622 148.715V149.586C305.622 149.739 305.746 149.863 305.899 149.863Z" fill="#3F3D56"/>
<path d="M301.156 149.863H302.975C303.127 149.863 303.251 149.739 303.251 149.586V148.715C303.251 148.563 303.127 148.439 302.975 148.439H301.156C301.003 148.439 300.879 148.563 300.879 148.715V149.586C300.879 149.739 301.003 149.863 301.156 149.863Z" fill="#3F3D56"/>
<path d="M296.413 149.863H298.231C298.384 149.863 298.508 149.739 298.508 149.586V148.715C298.508 148.563 298.384 148.439 298.231 148.439H296.413C296.26 148.439 296.136 148.563 296.136 148.715V149.586C296.136 149.739 296.26 149.863 296.413 149.863Z" fill="#3F3D56"/>
<path d="M291.67 149.863H293.488C293.641 149.863 293.765 149.739 293.765 149.586V148.715C293.765 148.563 293.641 148.439 293.488 148.439H291.67C291.517 148.439 291.393 148.563 291.393 148.715V149.586C291.393 149.739 291.517 149.863 291.67 149.863Z" fill="#3F3D56"/>
<path d="M286.926 149.863H288.745C288.898 149.863 289.022 149.739 289.022 149.586V148.715C289.022 148.563 288.898 148.439 288.745 148.439H286.926C286.774 148.439 286.65 148.563 286.65 148.715V149.586C286.65 149.739 286.774 149.863 286.926 149.863Z" fill="#3F3D56"/>
<path d="M282.183 149.863H284.002C284.155 149.863 284.279 149.739 284.279 149.586V148.715C284.279 148.563 284.155 148.439 284.002 148.439H282.183C282.031 148.439 281.907 148.563 281.907 148.715V149.586C281.907 149.739 282.031 149.863 282.183 149.863Z" fill="#3F3D56"/>
<path d="M313.962 152.711H332.382C332.534 152.711 332.658 152.587 332.658 152.435V151.564C332.658 151.411 332.534 151.287 332.382 151.287H313.962C313.809 151.287 313.686 151.411 313.686 151.564V152.435C313.686 152.587 313.809 152.711 313.962 152.711Z" fill="#3F3D56"/>
<path d="M294.447 104.707H292.837C292.349 104.707 291.953 105.103 291.953 105.592C291.953 106.08 292.349 106.477 292.837 106.477H294.447C294.935 106.477 295.331 106.08 295.331 105.592C295.331 105.103 294.935 104.707 294.447 104.707Z" fill="#FFE267"/>
<path d="M312.862 104.707H311.252C310.764 104.707 310.368 105.103 310.368 105.592C310.368 106.08 310.764 106.477 311.252 106.477H312.862C313.35 106.477 313.746 106.08 313.746 105.592C313.746 105.103 313.35 104.707 312.862 104.707Z" fill="#FFE267"/>
<path d="M318.079 104.707H316.469C315.981 104.707 315.585 105.103 315.585 105.592C315.585 106.08 315.981 106.477 316.469 106.477H318.079C318.568 106.477 318.963 106.08 318.963 105.592C318.963 105.103 318.568 104.707 318.079 104.707Z" fill="#FFE267"/>
<path d="M307.853 104.56H297.846C297.358 104.56 296.962 104.956 296.962 105.444C296.962 105.933 297.358 106.329 297.846 106.329H307.853C308.341 106.329 308.737 105.933 308.737 105.444C308.737 104.956 308.341 104.56 307.853 104.56Z" fill="#FFE267"/>
<path d="M332.406 104.56H322.399C321.911 104.56 321.515 104.956 321.515 105.444C321.515 105.933 321.911 106.329 322.399 106.329H332.406C332.894 106.329 333.29 105.933 333.29 105.444C333.29 104.956 332.894 104.56 332.406 104.56Z" fill="#FFE267"/>
<path d="M299.358 108.701H297.748C297.259 108.701 296.864 109.097 296.864 109.585C296.864 110.074 297.259 110.47 297.748 110.47H299.358C299.846 110.47 300.242 110.074 300.242 109.585C300.242 109.097 299.846 108.701 299.358 108.701Z" fill="#FFE267"/>
<path d="M317.772 108.701H316.162C315.674 108.701 315.278 109.097 315.278 109.585C315.278 110.074 315.674 110.47 316.162 110.47H317.772C318.261 110.47 318.656 110.074 318.656 109.585C318.656 109.097 318.261 108.701 317.772 108.701Z" fill="#FFE267"/>
<path d="M322.99 108.701H321.38C320.892 108.701 320.496 109.097 320.496 109.585C320.496 110.074 320.892 110.47 321.38 110.47H322.99C323.478 110.47 323.874 110.074 323.874 109.585C323.874 109.097 323.478 108.701 322.99 108.701Z" fill="#FFE267"/>
<path d="M312.764 108.553H302.756C302.268 108.553 301.873 108.949 301.873 109.438C301.873 109.926 302.268 110.322 302.756 110.322H312.764C313.252 110.322 313.647 109.926 313.647 109.438C313.647 108.949 313.252 108.553 312.764 108.553Z" fill="#FFE267"/>
<path d="M337.317 108.553H327.31C326.821 108.553 326.426 108.949 326.426 109.438C326.426 109.926 326.821 110.322 327.31 110.322H337.317C337.805 110.322 338.201 109.926 338.201 109.438C338.201 108.949 337.805 108.553 337.317 108.553Z" fill="#FFE267"/>
<path d="M304.268 112.694H302.658C302.17 112.694 301.774 113.09 301.774 113.579C301.774 114.067 302.17 114.463 302.658 114.463H304.268C304.757 114.463 305.152 114.067 305.152 113.579C305.152 113.09 304.757 112.694 304.268 112.694Z" fill="white"/>
<path d="M322.683 112.694H321.073C320.585 112.694 320.189 113.09 320.189 113.579C320.189 114.067 320.585 114.463 321.073 114.463H322.683C323.171 114.463 323.567 114.067 323.567 113.579C323.567 113.09 323.171 112.694 322.683 112.694Z" fill="white"/>
<path d="M327.901 112.694H326.29C325.802 112.694 325.406 113.09 325.406 113.579C325.406 114.067 325.802 114.463 326.29 114.463H327.901C328.389 114.463 328.784 114.067 328.784 113.579C328.784 113.09 328.389 112.694 327.901 112.694Z" fill="#FFE267"/>
<path d="M317.674 112.546H307.667C307.179 112.546 306.783 112.943 306.783 113.431C306.783 113.92 307.179 114.316 307.667 114.316H317.674C318.162 114.316 318.558 113.92 318.558 113.431C318.558 112.943 318.162 112.546 317.674 112.546Z" fill="#FFE267"/>
<path d="M342.227 112.546H332.22C331.732 112.546 331.336 112.943 331.336 113.431C331.336 113.92 331.732 114.316 332.22 114.316H342.227C342.715 114.316 343.111 113.92 343.111 113.431C343.111 112.943 342.715 112.546 342.227 112.546Z" fill="white"/>
<path d="M309.179 116.687H307.569C307.081 116.687 306.685 117.083 306.685 117.572C306.685 118.061 307.081 118.457 307.569 118.457H309.179C309.667 118.457 310.063 118.061 310.063 117.572C310.063 117.083 309.667 116.687 309.179 116.687Z" fill="white"/>
<path d="M327.594 116.687H325.984C325.495 116.687 325.1 117.083 325.1 117.572C325.1 118.061 325.495 118.457 325.984 118.457H327.594C328.082 118.457 328.478 118.061 328.478 117.572C328.478 117.083 328.082 116.687 327.594 116.687Z" fill="white"/>
<path d="M332.811 116.687H331.201C330.713 116.687 330.317 117.083 330.317 117.572C330.317 118.061 330.713 118.457 331.201 118.457H332.811C333.299 118.457 333.695 118.061 333.695 117.572C333.695 117.083 333.299 116.687 332.811 116.687Z" fill="#FFE267"/>
<path d="M322.585 116.54H312.578C312.09 116.54 311.694 116.936 311.694 117.424C311.694 117.913 312.09 118.309 312.578 118.309H322.585C323.073 118.309 323.469 117.913 323.469 117.424C323.469 116.936 323.073 116.54 322.585 116.54Z" fill="#FFE267"/>
<path d="M312.862 132.567H311.252C310.764 132.567 310.368 132.963 310.368 133.451C310.368 133.94 310.764 134.336 311.252 134.336H312.862C313.35 134.336 313.746 133.94 313.746 133.451C313.746 132.963 313.35 132.567 312.862 132.567Z" fill="white"/>
<path d="M318.079 132.567H316.469C315.981 132.567 315.585 132.963 315.585 133.451C315.585 133.94 315.981 134.336 316.469 134.336H318.079C318.568 134.336 318.963 133.94 318.963 133.451C318.963 132.963 318.568 132.567 318.079 132.567Z" fill="#FFE267"/>
<path d="M332.406 132.714H322.399C321.911 132.714 321.515 133.11 321.515 133.599C321.515 134.087 321.911 134.483 322.399 134.483H332.406C332.894 134.483 333.29 134.087 333.29 133.599C333.29 133.11 332.894 132.714 332.406 132.714Z" fill="#FFE267"/>
<path d="M294.447 132.567H292.837C292.349 132.567 291.953 132.963 291.953 133.451C291.953 133.94 292.349 134.336 292.837 134.336H294.447C294.935 134.336 295.331 133.94 295.331 133.451C295.331 132.963 294.935 132.567 294.447 132.567Z" fill="#FFE267"/>
<path d="M307.853 132.714H297.846C297.358 132.714 296.962 133.11 296.962 133.599C296.962 134.087 297.358 134.483 297.846 134.483H307.853C308.341 134.483 308.737 134.087 308.737 133.599C308.737 133.11 308.341 132.714 307.853 132.714Z" fill="#FFE267"/>
<path d="M299.358 128.573H297.748C297.259 128.573 296.864 128.969 296.864 129.458C296.864 129.946 297.259 130.342 297.748 130.342H299.358C299.846 130.342 300.242 129.946 300.242 129.458C300.242 128.969 299.846 128.573 299.358 128.573Z" fill="#FFE267"/>
<path d="M317.772 128.573H316.162C315.674 128.573 315.278 128.969 315.278 129.458C315.278 129.946 315.674 130.342 316.162 130.342H317.772C318.261 130.342 318.656 129.946 318.656 129.458C318.656 128.969 318.261 128.573 317.772 128.573Z" fill="white"/>
<path d="M322.99 128.573H321.38C320.892 128.573 320.496 128.969 320.496 129.458C320.496 129.946 320.892 130.342 321.38 130.342H322.99C323.478 130.342 323.874 129.946 323.874 129.458C323.874 128.969 323.478 128.573 322.99 128.573Z" fill="#FFE267"/>
<path d="M312.764 128.721H302.756C302.268 128.721 301.873 129.117 301.873 129.605C301.873 130.094 302.268 130.49 302.756 130.49H312.764C313.252 130.49 313.647 130.094 313.647 129.605C313.647 129.117 313.252 128.721 312.764 128.721Z" fill="#FFE267"/>
<path d="M304.268 124.58H302.658C302.17 124.58 301.774 124.976 301.774 125.464C301.774 125.953 302.17 126.349 302.658 126.349H304.268C304.757 126.349 305.152 125.953 305.152 125.464C305.152 124.976 304.757 124.58 304.268 124.58Z" fill="#FFE267"/>
<path d="M322.683 124.58H321.073C320.585 124.58 320.189 124.976 320.189 125.464C320.189 125.953 320.585 126.349 321.073 126.349H322.683C323.171 126.349 323.567 125.953 323.567 125.464C323.567 124.976 323.171 124.58 322.683 124.58Z" fill="white"/>
<path d="M327.901 124.58H326.29C325.802 124.58 325.406 124.976 325.406 125.464C325.406 125.953 325.802 126.349 326.29 126.349H327.901C328.389 126.349 328.784 125.953 328.784 125.464C328.784 124.976 328.389 124.58 327.901 124.58Z" fill="#FFE267"/>
<path d="M317.674 124.727H307.667C307.179 124.727 306.783 125.123 306.783 125.612C306.783 126.101 307.179 126.497 307.667 126.497H317.674C318.162 126.497 318.558 126.101 318.558 125.612C318.558 125.123 318.162 124.727 317.674 124.727Z" fill="#FFE267"/>
<path d="M309.179 120.586H307.569C307.081 120.586 306.685 120.983 306.685 121.471C306.685 121.96 307.081 122.356 307.569 122.356H309.179C309.667 122.356 310.063 121.96 310.063 121.471C310.063 120.983 309.667 120.586 309.179 120.586Z" fill="white"/>
<path d="M327.594 120.586H325.984C325.495 120.586 325.1 120.983 325.1 121.471C325.1 121.96 325.495 122.356 325.984 122.356H327.594C328.082 122.356 328.478 121.96 328.478 121.471C328.478 120.983 328.082 120.586 327.594 120.586Z" fill="#FFE267"/>
<path d="M332.811 120.586H331.201C330.713 120.586 330.317 120.983 330.317 121.471C330.317 121.96 330.713 122.356 331.201 122.356H332.811C333.299 122.356 333.695 121.96 333.695 121.471C333.695 120.983 333.299 120.586 332.811 120.586Z" fill="#FFE267"/>
<path d="M322.585 120.734H312.578C312.09 120.734 311.694 121.13 311.694 121.619C311.694 122.107 312.09 122.503 312.578 122.503H322.585C323.073 122.503 323.469 122.107 323.469 121.619C323.469 121.13 323.073 120.734 322.585 120.734Z" fill="#FFE267"/>
<path d="M285.887 179.367L278.328 167.409L302.054 148.479L311.846 137.621C313.118 136.21 314.738 135.158 316.544 134.57C318.35 133.982 320.278 133.879 322.136 134.271C323.994 134.663 325.717 135.535 327.132 136.802C328.547 138.069 329.606 139.686 330.201 141.49C331.084 144.164 330.894 147.077 329.672 149.613C328.45 152.15 326.291 154.112 323.65 155.086L308.165 160.795L285.887 179.367Z" fill="#FFB6B6"/>
<path d="M108.536 92.6613V150.782H149.218V92.6613C149.218 92.2432 149.085 91.836 148.838 91.4994C148.59 91.1628 148.241 90.9146 147.842 90.7912C147.654 90.729 147.457 90.6983 147.259 90.7005H110.501C110.243 90.7 109.988 90.7503 109.749 90.8486C109.511 90.9469 109.295 91.0912 109.112 91.2733C108.93 91.4554 108.785 91.6717 108.686 91.9099C108.587 92.148 108.536 92.4034 108.536 92.6613ZM124.412 112.632C124.423 111.486 124.885 110.391 125.698 109.584C126.512 108.778 127.61 108.325 128.755 108.325C129.9 108.325 130.998 108.778 131.812 109.584C132.625 110.391 133.087 111.486 133.098 112.632V119.376C133.092 120.525 132.632 121.624 131.818 122.435C131.004 123.245 129.903 123.7 128.755 123.7C127.607 123.7 126.506 123.245 125.692 122.435C124.878 121.624 124.418 120.525 124.412 119.376V112.632Z" fill="#2F2E41"/>
<path d="M108.411 148.923V154.528C108.412 154.818 108.528 155.097 108.732 155.302C108.937 155.508 109.214 155.625 109.504 155.627H148.25C148.54 155.626 148.818 155.51 149.023 155.303C149.228 155.097 149.342 154.819 149.342 154.528V148.923H108.411Z" fill="#3F3D56"/>
<path d="M44.5377 5.09464V111.215C44.5388 112.567 45.076 113.864 46.0314 114.82C46.9869 115.777 48.2824 116.314 49.6336 116.315H206.756C208.107 116.314 209.402 115.777 210.358 114.82C211.313 113.864 211.85 112.567 211.851 111.215V5.09464C211.848 3.74346 211.31 2.44863 210.355 1.49373C209.4 0.538833 208.106 0.00171598 206.756 0H49.6336C48.2836 0.00172195 46.9893 0.538852 46.0342 1.49375C45.079 2.44864 44.5409 3.74346 44.5377 5.09464Z" fill="#3F3D56"/>
<path d="M48.2238 6.41502V109.906C48.225 110.629 48.5123 111.321 49.0228 111.832C49.5333 112.343 50.2253 112.631 50.9472 112.632H205.448C206.17 112.631 206.862 112.343 207.372 111.832C207.883 111.321 208.17 110.629 208.171 109.906V6.41502C208.171 5.69158 207.884 4.99772 207.374 4.48565C206.863 3.97357 206.171 3.68509 205.448 3.68352H50.9472C50.2244 3.68509 49.5317 3.97357 49.0212 4.48565C48.5106 4.99772 48.2238 5.69159 48.2238 6.41502Z" fill="white"/>
<path d="M76.8964 155.248C77.0537 155.445 77.2535 155.604 77.4811 155.713C77.7086 155.822 77.9578 155.878 78.21 155.877H170.128C170.379 155.876 170.627 155.82 170.854 155.712C171.081 155.603 171.281 155.446 171.439 155.25C171.598 155.055 171.711 154.827 171.77 154.582C171.829 154.338 171.833 154.083 171.781 153.837L170.354 147.053C170.295 146.777 170.168 146.519 169.984 146.304C169.8 146.09 169.565 145.924 169.301 145.824C169.11 145.748 168.906 145.71 168.701 145.71H79.6312C79.4258 145.71 79.2222 145.748 79.031 145.824C78.7669 145.924 78.5322 146.09 78.3483 146.304C78.1643 146.519 78.037 146.777 77.9779 147.053L76.551 153.837C76.5003 154.083 76.5049 154.337 76.5647 154.581C76.6244 154.825 76.7377 155.053 76.8964 155.248Z" fill="#2F2E41"/>
<path d="M200.434 17.9399H55.8681C55.7178 17.9365 55.5749 17.8744 55.4698 17.7669C55.3647 17.6594 55.3058 17.5149 55.3058 17.3645C55.3058 17.214 55.3647 17.0696 55.4698 16.962C55.5749 16.8545 55.7178 16.7924 55.8681 16.7891H200.434C200.584 16.7924 200.727 16.8545 200.832 16.962C200.937 17.0696 200.996 17.214 200.996 17.3645C200.996 17.5149 200.937 17.6594 200.832 17.7669C200.727 17.8744 200.584 17.9365 200.434 17.9399Z" fill="#3F3D56"/>
<path d="M65.7089 13.8512C67.5696 13.8512 69.0781 12.3078 69.0781 10.4039C69.0781 8.50006 67.5696 6.95667 65.7089 6.95667C63.8481 6.95667 62.3397 8.50006 62.3397 10.4039C62.3397 12.3078 63.8481 13.8512 65.7089 13.8512Z" fill="#3F3D56"/>
<path d="M77.3478 13.8512C79.2085 13.8512 80.717 12.3078 80.717 10.4039C80.717 8.50006 79.2085 6.95667 77.3478 6.95667C75.4871 6.95667 73.9786 8.50006 73.9786 10.4039C73.9786 12.3078 75.4871 13.8512 77.3478 13.8512Z" fill="#3F3D56"/>
<path d="M88.9868 13.8512C90.8475 13.8512 92.3559 12.3078 92.3559 10.4039C92.3559 8.50006 90.8475 6.95667 88.9868 6.95667C87.126 6.95667 85.6176 8.50006 85.6176 10.4039C85.6176 12.3078 87.126 13.8512 88.9868 13.8512Z" fill="#3F3D56"/>
<path d="M193.425 7.80914H185.158C184.995 7.81295 184.84 7.8806 184.725 7.99762C184.611 8.11464 184.547 8.27174 184.547 8.43534C184.547 8.59893 184.611 8.75605 184.725 8.87307C184.84 8.99009 184.995 9.05774 185.158 9.06155H193.425C193.589 9.05923 193.746 8.99223 193.862 8.87505C193.977 8.75786 194.042 8.5999 194.042 8.43534C194.042 8.27077 193.977 8.11283 193.862 7.99565C193.746 7.87846 193.589 7.81146 193.425 7.80914Z" fill="#3F3D56"/>
<path d="M193.425 10.1609H185.159C184.995 10.1646 184.839 10.2321 184.725 10.3492C184.611 10.4662 184.547 10.6234 184.547 10.7872C184.547 10.9509 184.611 11.1081 184.725 11.2251C184.839 11.3422 184.995 11.4097 185.159 11.4134H193.425C193.59 11.4114 193.747 11.3445 193.863 11.2273C193.978 11.1101 194.043 10.9519 194.043 10.7872C194.043 10.6224 193.978 10.4642 193.863 10.347C193.747 10.2298 193.59 10.1629 193.425 10.1609Z" fill="#3F3D56"/>
<path d="M193.425 12.5127H185.158C184.995 12.5165 184.84 12.5842 184.725 12.7012C184.611 12.8182 184.547 12.9753 184.547 13.1389C184.547 13.3025 184.611 13.4596 184.725 13.5767C184.84 13.6937 184.995 13.7613 185.158 13.7651H193.425C193.589 13.7628 193.746 13.6958 193.862 13.5786C193.977 13.4614 194.042 13.3035 194.042 13.1389C194.042 12.9744 193.977 12.8164 193.862 12.6992C193.746 12.582 193.589 12.515 193.425 12.5127Z" fill="#3F3D56"/>
<path d="M392.718 151.383C392.967 152.11 393.44 152.739 394.069 153.18C394.698 153.621 395.451 153.851 396.219 153.838L411.218 153.451C411.992 153.436 412.74 153.171 413.35 152.695C413.961 152.219 414.401 151.559 414.605 150.812L416.727 128.095C417.481 128.436 418.3 128.605 419.127 128.588C419.845 128.57 420.553 128.411 421.209 128.119C421.866 127.827 422.459 127.409 422.954 126.888C423.449 126.367 423.836 125.753 424.095 125.082C424.353 124.411 424.476 123.696 424.458 122.977C424.44 122.258 424.281 121.55 423.99 120.893C423.698 120.236 423.28 119.643 422.76 119.147C422.239 118.652 421.626 118.264 420.956 118.005C420.285 117.747 419.571 117.623 418.852 117.641C418.522 117.64 418.193 117.675 417.869 117.744C417.518 117.363 417.091 117.061 416.616 116.855C416.14 116.65 415.627 116.547 415.11 116.552L392.037 117.148C391.845 117.155 391.655 117.179 391.467 117.219C390.961 117.313 390.482 117.515 390.06 117.811C389.638 118.106 389.285 118.489 389.024 118.933C388.762 119.376 388.599 119.871 388.544 120.383C388.49 120.896 388.546 121.414 388.708 121.902L392.718 151.383ZM417.163 126.552L418.673 121.139C418.845 120.513 418.849 119.854 418.685 119.226C418.758 119.226 418.823 119.191 418.896 119.191C419.932 119.17 420.934 119.56 421.682 120.277C422.43 120.994 422.864 121.978 422.889 123.015C422.913 124.051 422.525 125.055 421.811 125.806C421.097 126.557 420.115 126.994 419.079 127.021C418.41 127.042 417.747 126.88 417.163 126.552Z" fill="#2F2E41"/>
<path d="M391.468 117.219C391.959 120.032 397.486 122.01 404.131 121.666C410.242 121.384 415.239 119.236 416.154 116.691C415.815 116.591 415.463 116.544 415.11 116.552L392.037 117.148C391.845 117.155 391.655 117.179 391.468 117.219Z" fill="#3F3D56"/>
<path d="M405.349 138.9C405.379 138.892 405.408 138.879 405.435 138.862L408.692 136.728C408.731 136.702 408.764 136.667 408.786 136.626C408.809 136.585 408.82 136.538 408.82 136.491C408.82 136.444 408.809 136.398 408.786 136.356C408.764 136.315 408.732 136.28 408.692 136.254L405.306 134.035C405.275 134.014 405.24 134 405.204 133.993C405.167 133.986 405.13 133.986 405.093 133.993C405.057 134.001 405.022 134.016 404.991 134.037C404.96 134.057 404.934 134.084 404.914 134.115C404.893 134.147 404.879 134.182 404.872 134.218C404.865 134.255 404.866 134.293 404.873 134.329C404.881 134.366 404.896 134.4 404.917 134.431C404.938 134.462 404.965 134.488 404.996 134.508L408.02 136.491L405.125 138.388C405.069 138.425 405.027 138.48 405.008 138.544C404.989 138.609 404.993 138.678 405.02 138.739C405.047 138.8 405.095 138.85 405.155 138.88C405.215 138.909 405.284 138.916 405.349 138.9Z" fill="#FFE267"/>
<path d="M400.204 139.137C400.259 139.123 400.308 139.093 400.346 139.051C400.383 139.009 400.407 138.957 400.415 138.901C400.423 138.845 400.414 138.788 400.389 138.738C400.364 138.687 400.324 138.645 400.275 138.617L397.273 136.894L400.175 134.736C400.205 134.714 400.23 134.686 400.249 134.654C400.268 134.622 400.281 134.587 400.286 134.55C400.292 134.513 400.29 134.476 400.281 134.44C400.272 134.404 400.256 134.37 400.233 134.34C400.211 134.31 400.183 134.285 400.151 134.266C400.12 134.247 400.084 134.234 400.048 134.229C400.011 134.223 399.973 134.225 399.937 134.234C399.901 134.243 399.867 134.259 399.838 134.282L396.588 136.697C396.551 136.725 396.52 136.762 396.5 136.805C396.481 136.847 396.472 136.894 396.474 136.941C396.477 136.988 396.492 137.034 396.516 137.074C396.541 137.114 396.575 137.147 396.616 137.17L399.994 139.108C400.057 139.145 400.133 139.155 400.204 139.137Z" fill="#FFE267"/>
<path d="M405.025 140.77C405.052 140.763 405.079 140.752 405.103 140.737C405.134 140.718 405.162 140.692 405.184 140.662C405.206 140.632 405.222 140.598 405.231 140.562C405.239 140.526 405.241 140.488 405.235 140.452C405.23 140.415 405.217 140.379 405.197 140.348L400.58 132.749C400.541 132.685 400.478 132.639 400.405 132.621C400.332 132.604 400.255 132.616 400.191 132.655C400.127 132.694 400.081 132.757 400.063 132.83C400.045 132.903 400.057 132.98 400.096 133.044L404.714 140.643C404.745 140.694 404.792 140.735 404.848 140.757C404.904 140.78 404.966 140.785 405.025 140.77Z" fill="#FFE267"/>
<path d="M145.424 49.2216H120.403C119.382 49.2216 118.555 50.0498 118.555 51.0714V53.518C118.555 54.5396 119.382 55.3678 120.403 55.3678H145.424C146.445 55.3678 147.272 54.5396 147.272 53.518V51.0714C147.272 50.0498 146.445 49.2216 145.424 49.2216Z" fill="#FFE267"/>
<path d="M160.009 61.5141H105.818C104.798 61.5141 103.97 62.3423 103.97 63.3639V65.8105C103.97 66.8321 104.798 67.6603 105.818 67.6603H160.009C161.029 67.6603 161.857 66.8321 161.857 65.8105V63.3639C161.857 62.3423 161.029 61.5141 160.009 61.5141Z" fill="#E6E6E6"/>
<path d="M160.009 73.8066H105.818C104.798 73.8066 103.97 74.6348 103.97 75.6564V78.103C103.97 79.1247 104.798 79.9529 105.818 79.9529H160.009C161.029 79.9529 161.857 79.1247 161.857 78.103V75.6564C161.857 74.6348 161.029 73.8066 160.009 73.8066Z" fill="#E6E6E6"/>
<path d="M164.602 114.969L164.725 115.357L164.731 115.37L168.426 126.613L172.676 139.568L180.673 163.914L180.75 167.696V167.709L181.344 198.132L179.697 202.256L181.551 209.019C181.551 209.019 180.698 198.797 176.125 204.667C173.535 208.003 170.506 211.416 168.019 214.616C171.643 216.084 175.324 217.411 179.064 218.598C179.872 218.857 180.685 219.103 181.499 219.348C181.674 219.4 181.848 219.452 182.022 219.504C194.419 223.173 207.236 225.235 220.157 225.639C220.829 225.658 221.487 225.671 222.127 225.684C222.353 225.69 222.573 225.697 222.792 225.697C223.516 225.703 224.233 225.71 224.956 225.71C226.416 225.71 227.869 225.688 229.316 225.645C240.025 225.343 250.671 223.902 261.075 221.346C261.004 217.047 260.81 212.024 260.533 206.658C260.403 204.027 257.503 201.176 257.329 198.422C257.206 196.353 259.809 194.407 259.674 192.306C258.795 179.37 257.697 184.336 256.883 175.176C256.799 174.277 256.722 173.417 256.651 172.596C256.128 166.713 255.766 163.035 255.766 163.035L259.241 141.113L264.699 106.695L264.279 106.003L263.807 105.77L235.019 91.509L233.456 87.5008C233.001 86.3461 232.211 85.3542 231.187 84.6526C230.164 83.9509 228.954 83.5718 227.714 83.5638L208.75 83.4862C207.766 83.4818 206.795 83.7123 205.918 84.1587C205.04 84.605 204.282 85.2543 203.706 86.0528L198.571 93.1704L164.602 114.969Z" fill="#3F3D56"/>
<path d="M185.045 158.497L180.75 167.696L177.818 173.98L172.773 200.414L170.248 203.097L168.084 193.599L145.437 198.632C144.694 194.501 145.238 198.772 144.779 194.24C144.909 194.111 145.044 193.982 145.18 193.852C145.542 193.516 145.845 193.199 145.839 192.895C145.58 177.264 146.355 150.661 152.827 134.545C153.841 131.913 155.178 129.418 156.806 127.117C156.935 126.942 157.058 126.768 157.181 126.593C160.165 122.41 162.051 118.292 164.725 115.364V115.357C164.742 115.344 164.757 115.329 164.77 115.312C164.78 115.307 164.789 115.301 164.796 115.293L183.166 105.544L183.954 127.705L184.516 143.634L185.045 158.497Z" fill="#3F3D56"/>
<path d="M251.283 161.11L256.648 172.599L258.521 176.601L263.564 203.033L266.081 205.709L268.25 196.214L269.269 196.005L287.647 192.195L293.004 209.222C294.211 207.209 294.687 204.84 294.35 202.516C294.014 200.192 292.886 198.056 291.157 196.468C290.792 196.137 290.487 195.814 290.495 195.509C290.8 177.124 289.677 143.552 279.529 129.735C276.307 125.35 274.373 120.982 271.56 117.931C271.551 117.922 271.551 117.914 271.542 117.914L264.696 106.694L264.278 106.005L263.808 105.77L251.283 161.11Z" fill="#3F3D56"/>
<path d="M218.78 78.0846C232.714 78.0846 244.009 66.7792 244.009 52.8334C244.009 38.8875 232.714 27.5822 218.78 27.5822C204.846 27.5822 193.551 38.8875 193.551 52.8334C193.551 66.7792 204.846 78.0846 218.78 78.0846Z" fill="#FFB6B6"/>
<path d="M252.88 35.1955C252.685 34.9864 252.449 34.8189 252.187 34.703C251.925 34.5872 251.643 34.5253 251.357 34.5211L251.736 33.4671C251.86 33.1351 251.894 32.7761 251.833 32.4269C251.773 32.0777 251.621 31.7509 251.393 31.4798C251.164 31.2088 250.868 31.0034 250.535 30.8846C250.201 30.7657 249.842 30.7378 249.494 30.8036L248.113 31.0699L248.243 30.1462C248.293 29.8022 248.252 29.4511 248.126 29.1274C247.999 28.8037 247.79 28.5186 247.52 28.3002C247.25 28.0818 246.927 27.9375 246.584 27.8816C246.242 27.8257 245.89 27.8601 245.565 27.9814C245.269 28.0981 244.95 28.1469 244.633 28.1244C244.315 28.1018 244.007 28.0084 243.73 27.8511C243.452 27.6985 243.211 27.4871 243.023 27.2317C242.836 26.9762 242.706 26.6828 242.643 26.372L242.162 24.0485L242.111 23.9238C239.767 20.0136 235.26 17.1687 229.745 16.126C224.836 15.1909 219.802 15.667 214.95 16.1147C213.025 16.296 210.851 16.5 209.039 17.6107C207.499 18.5628 206.196 20.4669 206.463 22.388C201.678 20.9203 196.548 23.8501 194.006 27.545C190.994 31.9426 190.501 37.451 190.422 41.7579C190.207 51.9472 192.307 60.2834 196.65 66.5397C196.967 66.9931 197.047 67.9395 197.675 68.2568L197.545 68.0471C198.247 68.3985 198.96 68.9652 198.694 69.5716C197.93 71.317 203.009 75.1763 206.587 76.4513C213.115 78.7805 221.795 78.5821 227.899 77.7434L228.114 76.2983C230.317 75.998 231.868 75.4256 232.304 74.5302C233.074 73.8728 233.731 73.2835 234.303 72.7394L234.309 72.7338C234.32 72.7224 234.342 72.7054 234.354 72.6941C237.111 70.0476 237.751 68.5402 238.04 66.2451C238.317 63.9953 237.825 61.7115 237.321 59.6543C247.931 61.2978 233.142 48.343 243.028 45.8382C243.141 45.8032 243.257 45.7748 243.373 45.7532C243.662 45.6852 243.951 45.6171 244.228 45.5378C245.566 45.1745 246.846 44.6271 248.033 43.9114C250.796 42.2283 251.708 39.9955 253.135 37.4793C253.341 37.1211 253.427 36.7064 253.381 36.2956C253.335 35.8849 253.16 35.4995 252.88 35.1955Z" fill="#2F2E41"/>
<path d="M308.012 162.907C308.006 163.899 307.995 165.287 307.949 167.005C307.944 167.243 307.938 167.486 307.932 167.736C307.859 170.892 307.785 173.539 307.666 176.48C307.66 176.684 307.655 176.882 307.643 177.086C307.485 181.189 307.236 185.966 306.805 193.532C306.007 207.507 304.614 195.453 303.216 200.355C303.148 200.599 303.074 200.888 303.006 201.228C302.794 202.461 302.437 203.665 301.942 204.815C301.2 205.257 300.436 205.682 299.683 206.107C297.537 207.303 295.357 208.453 293.16 209.547C291.926 210.159 290.686 210.76 289.44 211.338C289.242 211.428 289.049 211.519 288.857 211.604C282.478 214.557 275.904 217.068 269.181 219.118C267.868 219.515 266.56 219.9 265.235 220.257C263.853 220.643 262.472 221.006 261.073 221.346C250.669 223.902 240.023 225.344 229.315 225.647C227.871 225.692 226.416 225.709 224.955 225.709C224.23 225.709 223.517 225.703 222.792 225.698C222.571 225.698 222.35 225.692 222.129 225.686C221.49 225.669 220.827 225.658 220.159 225.641C207.238 225.238 194.422 223.175 182.025 219.504L181.499 219.351C180.683 219.101 179.874 218.858 179.064 218.597C175.327 217.413 171.645 216.087 168.017 214.619C165.248 213.502 162.512 212.305 159.807 211.026C159.783 211.019 159.759 211.008 159.739 210.992C159.173 210.731 158.601 210.459 158.035 210.182C157.961 210.142 157.882 210.102 157.803 210.063C155.691 209.031 153.602 207.951 151.535 206.821C149.797 202.826 147.351 202.061 145.833 198.547C145.392 197.503 145.072 196.412 144.882 195.294C144.882 195.283 144.876 195.272 144.876 195.255C145.035 197.363 144.203 191.514 144.871 195.232C144.865 195.164 144.859 195.09 144.854 195.005C144.837 194.801 144.814 194.552 144.78 194.24C142.838 175.261 142.963 153.557 142.119 135.672C142.062 134.516 142.004 133.409 141.943 132.351C141.926 131.999 141.904 131.654 141.881 131.314C141.921 131.212 141.966 131.104 142.017 131.002C142.028 130.973 142.041 130.944 142.057 130.917C142.073 130.882 142.092 130.848 142.113 130.815C142.125 130.798 142.142 130.775 142.153 130.758C142.161 130.739 142.171 130.72 142.181 130.702C142.232 130.622 142.289 130.537 142.351 130.458C142.379 130.424 142.402 130.396 142.43 130.367C142.45 130.338 142.473 130.312 142.498 130.288C142.516 130.261 142.537 130.236 142.561 130.214C142.583 130.192 142.606 130.163 142.634 130.135C142.646 130.117 142.662 130.102 142.68 130.09C142.724 130.038 142.774 129.991 142.827 129.948C143.029 129.762 143.245 129.591 143.472 129.438C143.551 129.387 143.636 129.336 143.716 129.279C144.286 128.938 144.887 128.649 145.511 128.418C145.726 128.339 145.941 128.265 146.173 128.186C146.258 128.163 146.337 128.135 146.422 128.106C146.547 128.067 146.671 128.027 146.801 127.999C147.447 127.806 148.143 127.641 148.896 127.488C148.987 127.471 149.083 127.454 149.18 127.432C149.315 127.403 149.457 127.381 149.599 127.358C149.791 127.324 149.989 127.29 150.187 127.256C151.869 126.99 153.777 126.791 155.883 126.661C156.082 126.65 156.28 126.638 156.478 126.627C156.71 126.616 156.942 126.604 157.18 126.593C157.378 126.582 157.582 126.576 157.786 126.57C157.984 126.559 158.188 126.553 158.397 126.548C158.969 126.531 159.558 126.514 160.158 126.502C161.868 126.468 163.669 126.48 165.56 126.519C166.438 126.542 167.332 126.565 168.249 126.604C168.312 126.604 168.368 126.61 168.425 126.61C169.223 126.638 170.027 126.672 170.854 126.718C171.431 126.746 172.015 126.774 172.598 126.808C173.147 126.842 173.702 126.876 174.262 126.916C174.698 126.939 175.134 126.973 175.576 127.001C175.95 127.029 176.323 127.058 176.697 127.08L177.207 127.114C177.484 127.137 177.762 127.154 178.045 127.182C178.668 127.233 179.29 127.284 179.925 127.335C180.553 127.392 181.193 127.449 181.833 127.505C182.472 127.562 183.118 127.625 183.763 127.687C183.831 127.693 183.894 127.698 183.956 127.704C184.545 127.766 185.134 127.823 185.728 127.885C185.864 127.897 186.006 127.908 186.141 127.925C186.708 127.982 187.286 128.049 187.858 128.109C188.034 128.128 188.208 128.147 188.384 128.166C188.833 128.215 189.274 128.257 189.725 128.31C190.32 128.378 190.926 128.441 191.515 128.52C191.973 128.571 192.432 128.622 192.891 128.679C193.61 128.764 194.34 128.854 195.07 128.951C195.348 128.985 195.625 129.019 195.903 129.058C197.986 129.319 200.093 129.608 202.233 129.908C205.477 130.367 208.773 130.866 212.091 131.404C215.414 131.943 218.757 132.511 222.118 133.11C222.967 133.263 223.817 133.416 224.672 133.575C225.057 133.648 225.442 133.722 225.827 133.796C226.484 133.915 227.14 134.04 227.797 134.164C228.454 134.289 229.111 134.414 229.768 134.544C230.549 134.697 231.336 134.85 232.117 135.003C237.264 136.023 242.383 137.111 247.377 138.25C248.198 138.437 249.019 138.63 249.834 138.817C251.465 139.197 253.08 139.582 254.681 139.973C255.122 140.075 255.558 140.183 255.994 140.29C257.081 140.562 258.168 140.834 259.239 141.112L259.425 141.163C260.212 141.356 260.982 141.554 261.752 141.758C263.57 142.234 265.357 142.716 267.114 143.203C268.281 143.526 269.434 143.853 270.574 144.183C272.278 144.677 273.949 145.175 275.574 145.68C275.976 145.804 276.378 145.929 276.774 146.048C277.963 146.416 279.135 146.79 280.273 147.164C281.179 147.459 282.062 147.759 282.934 148.06C283.806 148.36 284.661 148.66 285.499 148.961C286.037 149.153 286.569 149.357 287.101 149.55C287.866 149.834 288.619 150.117 289.355 150.4C289.581 150.485 289.802 150.576 290.023 150.661C290.165 150.723 290.301 150.774 290.436 150.831C290.703 150.939 290.974 151.041 291.235 151.148C291.501 151.25 291.761 151.358 292.022 151.471C292.277 151.573 292.537 151.681 292.786 151.789C293.041 151.891 293.29 151.998 293.539 152.112C293.749 152.197 293.953 152.287 294.151 152.378C294.553 152.554 294.955 152.729 295.345 152.911C295.538 153.001 295.73 153.086 295.923 153.177L296.365 153.381C296.427 153.415 296.489 153.443 296.551 153.472C296.693 153.54 296.84 153.613 296.982 153.681C297.31 153.834 297.633 153.999 297.95 154.152C298.375 154.367 298.788 154.582 299.184 154.792C299.586 155.007 299.977 155.223 300.351 155.432C300.413 155.466 300.47 155.501 300.532 155.535C300.617 155.58 300.702 155.631 300.787 155.676C301.075 155.841 301.353 156.011 301.63 156.175C302.174 156.509 302.689 156.838 303.17 157.167C303.278 157.24 303.38 157.314 303.487 157.382C303.844 157.637 304.184 157.886 304.501 158.141C304.501 158.147 304.501 158.147 304.507 158.147C304.614 158.226 304.716 158.311 304.818 158.391C304.903 158.47 304.994 158.538 305.079 158.617C305.373 158.872 305.645 159.116 305.894 159.365C305.977 159.442 306.057 159.524 306.132 159.609C306.165 159.636 306.195 159.667 306.222 159.7C306.335 159.813 306.437 159.926 306.534 160.04C306.549 160.055 306.562 160.072 306.573 160.091C306.709 160.249 306.834 160.408 306.953 160.567C307.009 160.646 307.072 160.725 307.123 160.805C307.19 160.901 307.258 161.003 307.315 161.099C307.366 161.179 307.411 161.264 307.457 161.343C307.577 161.547 307.679 161.762 307.762 161.984C307.826 162.134 307.877 162.289 307.915 162.448C307.958 162.599 307.99 162.752 308.012 162.907Z" fill="#2F2E41"/>
<path opacity="0.2" d="M308.011 162.907C308.006 163.899 307.995 165.287 307.949 167.005C307.944 167.243 307.932 167.486 307.927 167.736C307.87 170.144 307.785 173.119 307.666 176.48C307.66 176.684 307.655 176.882 307.643 177.086C307.485 181.189 307.236 185.966 306.805 193.532C306.007 207.507 304.614 195.453 303.216 200.355C299.332 197.963 295.074 195.459 290.521 192.886C289.7 192.421 288.872 191.954 288.036 191.486C278.931 186.403 268.762 181.076 258.146 175.8C257.727 175.59 257.302 175.38 256.883 175.176C232.565 163.145 206.021 151.443 184.516 143.634C180.366 142.126 176.403 140.766 172.677 139.571C164.829 137.06 158.046 135.303 152.826 134.544C147.39 133.75 143.636 134.034 142.119 135.672C142.062 134.516 142.004 133.409 141.943 132.351C141.921 131.999 141.898 131.654 141.875 131.314C141.91 131.22 141.956 131.131 142 131.042C142.006 131.028 142.01 131.015 142.017 131.002C142.028 130.973 142.041 130.944 142.057 130.917C142.073 130.882 142.092 130.848 142.113 130.815C142.132 130.775 142.154 130.737 142.181 130.702C142.232 130.622 142.289 130.537 142.351 130.458C142.397 130.399 142.446 130.342 142.498 130.288C142.516 130.261 142.537 130.236 142.561 130.214C142.583 130.192 142.606 130.163 142.634 130.135C142.646 130.117 142.662 130.102 142.679 130.09C142.724 130.038 142.773 129.991 142.827 129.948C143.029 129.762 143.244 129.591 143.472 129.438C143.551 129.387 143.636 129.336 143.716 129.279C144.286 128.938 144.887 128.649 145.51 128.418C145.726 128.338 145.941 128.265 146.173 128.185C146.258 128.163 146.337 128.134 146.422 128.106C146.547 128.066 146.671 128.027 146.801 127.998C147.447 127.806 148.143 127.641 148.896 127.488C149.123 127.443 149.361 127.398 149.598 127.358C149.791 127.324 149.989 127.29 150.187 127.256C151.869 126.99 153.777 126.791 155.883 126.661C156.082 126.65 156.28 126.638 156.478 126.627C156.71 126.616 156.942 126.604 157.18 126.593C157.378 126.582 157.582 126.576 157.786 126.57C157.984 126.559 158.188 126.553 158.397 126.548C158.969 126.531 159.558 126.514 160.158 126.502C161.868 126.474 163.669 126.485 165.56 126.525C166.437 126.542 167.332 126.57 168.249 126.61C168.306 126.61 168.368 126.616 168.425 126.616C169.223 126.638 170.033 126.678 170.854 126.718C171.431 126.746 172.015 126.774 172.598 126.808C173.147 126.842 173.702 126.876 174.262 126.916C174.698 126.939 175.134 126.973 175.576 127.001C175.95 127.029 176.323 127.058 176.697 127.08C177.144 127.114 177.592 127.148 178.045 127.182C178.667 127.233 179.29 127.284 179.924 127.335C180.553 127.392 181.193 127.449 181.833 127.505C182.472 127.562 183.118 127.624 183.763 127.687C183.831 127.692 183.894 127.698 183.956 127.704C184.545 127.766 185.134 127.823 185.728 127.885C189.023 128.219 192.415 128.611 195.903 129.058C197.986 129.325 200.096 129.61 202.233 129.914C205.477 130.373 208.773 130.872 212.091 131.404C215.414 131.943 218.757 132.511 222.118 133.11C222.967 133.263 223.817 133.416 224.672 133.575C225.713 133.767 226.755 133.964 227.797 134.164C228.454 134.289 229.111 134.414 229.767 134.544C230.549 134.697 231.336 134.85 232.117 135.003C237.264 136.023 242.383 137.111 247.377 138.25C248.198 138.437 249.018 138.63 249.834 138.817C251.465 139.196 253.08 139.582 254.681 139.973C255.122 140.081 255.558 140.188 255.994 140.296C257.087 140.568 258.168 140.84 259.238 141.112V141.118C259.301 141.129 259.363 141.146 259.425 141.163C260.207 141.361 260.982 141.56 261.752 141.764C263.57 142.24 265.357 142.719 267.114 143.203C268.281 143.532 269.436 143.855 270.574 144.183C272.278 144.682 273.949 145.181 275.574 145.68C275.976 145.804 276.378 145.929 276.774 146.048C277.963 146.422 279.129 146.794 280.273 147.164C281.179 147.459 282.062 147.759 282.934 148.06C283.806 148.36 284.661 148.66 285.499 148.961C286.043 149.153 286.575 149.352 287.101 149.544C287.872 149.828 288.619 150.111 289.355 150.4C289.581 150.485 289.802 150.576 290.023 150.661C290.436 150.82 290.838 150.984 291.235 151.148C291.501 151.25 291.761 151.358 292.022 151.471C292.277 151.573 292.537 151.681 292.786 151.789C293.041 151.891 293.29 151.998 293.539 152.112C293.749 152.197 293.953 152.287 294.151 152.378C294.553 152.554 294.955 152.729 295.345 152.911C295.538 153.001 295.73 153.086 295.923 153.177L296.365 153.381C296.427 153.415 296.489 153.443 296.551 153.472C297.033 153.698 297.497 153.925 297.95 154.152C298.375 154.367 298.788 154.582 299.184 154.792C299.654 155.041 300.102 155.285 300.532 155.534C300.617 155.58 300.702 155.631 300.787 155.676C301.075 155.84 301.353 156.01 301.63 156.175C302.174 156.509 302.689 156.838 303.17 157.167C303.646 157.495 304.088 157.818 304.501 158.141C304.501 158.147 304.501 158.147 304.507 158.147C304.705 158.306 304.897 158.464 305.079 158.617C305.373 158.872 305.645 159.116 305.894 159.365C305.977 159.442 306.057 159.524 306.132 159.609C306.165 159.636 306.195 159.667 306.222 159.7C306.341 159.83 306.46 159.96 306.573 160.091C306.709 160.249 306.834 160.408 306.953 160.567C307.009 160.646 307.072 160.725 307.123 160.805C307.19 160.901 307.258 161.003 307.315 161.099C307.366 161.179 307.411 161.264 307.457 161.343C307.577 161.547 307.679 161.762 307.762 161.983C307.824 162.135 307.875 162.29 307.915 162.448C307.958 162.599 307.99 162.752 308.011 162.907Z" fill="black"/>
</svg>
