<svg width="89" height="103" viewBox="0 0 89 103" fill="none" xmlns="http://www.w3.org/2000/svg">
<path d="M0 0V96.5472C0 98.8547 1.23157 100.986 3.22921 102.137C5.22987 103.29 7.6898 103.287 9.68743 102.131L37.5387 85.9976C41.5398 83.6813 46.4747 83.6813 50.4758 85.9976L78.3287 102.131C80.3247 103.287 82.7863 103.29 84.7839 102.137C86.7831 100.986 88.0145 98.8547 88.0145 96.5472V0H0ZM64.892 41.928L54.8044 50.2312C54.4178 50.5497 54.2488 51.0655 54.3762 51.5517L57.6559 64.197C57.789 64.7112 57.5949 65.2535 57.1652 65.5649C56.7369 65.8776 56.1605 65.8938 55.7129 65.6094L44.7022 58.5804C44.2783 58.3109 43.736 58.3109 43.3121 58.5804L32.3 65.6094C31.8538 65.8938 31.276 65.8776 30.8463 65.5649C30.418 65.2537 30.2239 64.7114 30.3572 64.197L33.6381 51.5517C33.7657 51.0657 33.5967 50.5499 33.2101 50.2312L23.1225 41.928C22.7135 41.5901 22.5506 41.0375 22.7151 40.5335C22.8797 40.0282 23.3359 39.6755 23.8636 39.6429L36.9044 38.8576C37.4053 38.8264 37.844 38.5079 38.0277 38.0412L42.8054 25.882C43.0009 25.3885 43.4767 25.0638 44.0072 25.0638C44.5376 25.0638 45.0134 25.3897 45.209 25.882L49.9852 38.0412C50.1674 38.5079 50.606 38.8266 51.1083 38.8576L64.1491 39.6429C64.6798 39.6755 65.1348 40.0282 65.2992 40.5335C65.4639 41.0375 65.3024 41.5901 64.892 41.928Z" fill="black"/>
<rect x="10" y="15" width="65" height="62" fill="black"/>
<path fill-rule="evenodd" clip-rule="evenodd" d="M36.3636 30.125C36.3636 27.2945 38.6429 25 41.4545 25H46.5455C49.3572 25 51.6364 27.2945 51.6364 30.125H62.4993C63.3796 28.5931 65.0247 27.5625 66.9091 27.5625C69.7208 27.5625 72 29.857 72 32.6875C72 35.518 69.7208 37.8125 66.9091 37.8125C65.0247 37.8125 63.3796 36.7819 62.4993 35.25H53.8662C59.4227 38.3539 63.3852 43.9984 64.2061 50.625H64.3636C67.1753 50.625 69.4545 52.9195 69.4545 55.75V60.875C69.4545 63.7055 67.1753 66 64.3636 66H59.2727C56.461 66 54.1818 63.7055 54.1818 60.875V55.75C54.1818 52.9904 56.3483 50.7403 59.0622 50.6294C58.1914 45.3942 54.6927 41.0556 49.978 39.0349C49.0728 39.8673 47.8681 40.375 46.5455 40.375H41.4545C40.1319 40.375 38.9272 39.8673 38.022 39.0349C33.3074 41.0556 29.8086 45.3942 28.9377 50.6294C31.6518 50.7403 33.8182 52.9904 33.8182 55.75V60.875C33.8182 63.7055 31.5389 66 28.7273 66H23.6364C20.8247 66 18.5455 63.7055 18.5455 60.875V55.75C18.5455 52.9195 20.8247 50.625 23.6364 50.625H23.7939C24.6148 43.9984 28.5773 38.3539 34.1338 35.25H25.5008C24.6205 36.7819 22.9753 37.8125 21.0909 37.8125C18.2793 37.8125 16 35.518 16 32.6875C16 29.857 18.2793 27.5625 21.0909 27.5625C22.9753 27.5625 24.6205 28.5931 25.5008 30.125H36.3636ZM59.2727 55.75H64.3636V60.875H59.2727V55.75ZM46.5455 30.125H41.4545V35.25H46.5455V30.125ZM28.7273 60.875V55.75H23.6364V60.875H28.7273Z" fill="white"/>
</svg>
