<svg width="17" height="17" viewBox="0 0 17 17" fill="none" xmlns="http://www.w3.org/2000/svg">
<path d="M13.7129 0H3.28711C1.47422 0 0 1.47364 0 3.28583V6.75752V13.7142C0 15.5264 1.47422 17 3.28711 17H13.7129C15.5258 17 17 15.5264 17 13.7142V6.75088V3.27919C16.9934 1.47364 15.5191 0 13.7129 0ZM14.6559 1.95822H15.0344V2.32995V4.83913L12.159 4.84576L12.1523 1.96486L14.6559 1.95822ZM6.06953 6.75088C6.61406 6.00078 7.49727 5.50293 8.49336 5.50293C9.48945 5.50293 10.3727 5.99414 10.9172 6.75088C11.2758 7.24209 11.4816 7.84615 11.4816 8.49668C11.4816 10.1429 10.1402 11.4904 8.48672 11.4904C6.8332 11.4904 5.50508 10.1429 5.50508 8.49668C5.50508 7.84615 5.71758 7.24209 6.06953 6.75088ZM15.3398 13.7075C15.3398 14.6037 14.6094 15.3339 13.7129 15.3339H3.28711C2.39062 15.3339 1.66016 14.6037 1.66016 13.7075V6.75088H4.19688C3.97773 7.28856 3.85156 7.87934 3.85156 8.49668C3.85156 11.059 5.93672 13.1433 8.5 13.1433C11.0633 13.1433 13.1484 11.059 13.1484 8.49668C13.1484 7.87934 13.0223 7.28856 12.8031 6.75088H15.3398V13.7075Z" fill="#9A9A9A"/>
</svg>
