<svg width="63" height="86" viewBox="0 0 63 86" fill="none" xmlns="http://www.w3.org/2000/svg">
<path d="M0.364207 48.0871C1.93871 35.4263 9.78514 22.9518 21.8597 18.8317C17.0978 31.8631 17.0988 46.1589 21.8626 59.1897C23.718 64.2084 26.3042 69.5973 24.559 74.6555C23.4731 77.8028 20.8167 80.2108 17.8473 81.7164C14.8778 83.222 11.5822 83.9397 8.32789 84.6429L7.68742 85.1726C2.52124 73.5071 -1.21029 60.7478 0.364207 48.0871Z" fill="#0EB46A"/>
<path d="M21.9795 19.0711C14.9478 26.9498 10.5775 36.8438 9.48913 47.3478C9.21469 49.6049 9.29774 51.8912 9.73524 54.1225C10.2316 56.2822 11.2974 58.2696 12.8216 59.8782C14.2127 61.4066 15.8127 62.8089 16.808 64.6488C17.3035 65.5982 17.5927 66.6416 17.6567 67.7107C17.7207 68.7797 17.558 69.8501 17.1792 70.8518C16.3004 73.3723 14.5684 75.4267 12.8048 77.3769C10.8466 79.5423 8.77843 81.7604 7.94607 84.631C7.84522 84.9788 7.31142 84.802 7.41212 84.4547C8.86028 79.4603 13.7086 76.6233 16.0207 72.1249C17.0996 70.0259 17.5524 67.589 16.541 65.3732C15.6565 63.4356 14.0079 61.9882 12.586 60.4528C11.076 58.9054 9.96793 57.0118 9.3585 54.9374C8.80881 52.7356 8.63781 50.4563 8.85283 48.1972C9.25577 43.1034 10.4571 38.1047 12.4129 33.3841C14.615 27.9841 17.7247 23.0007 21.6074 18.6493C21.8478 18.3801 22.2183 18.8036 21.9795 19.0711Z" fill="white"/>
<path d="M9.6405 43.9449C7.90295 43.5231 6.37192 42.4973 5.32084 41.0509C4.26976 39.6044 3.76706 37.8314 3.90254 36.0485C3.93119 35.6879 4.49297 35.7155 4.46428 36.0766C4.33507 37.7366 4.8035 39.3881 5.78502 40.733C6.76653 42.078 8.19649 43.0278 9.8168 43.411C10.1688 43.4947 9.99049 44.0281 9.6405 43.9449Z" fill="white"/>
<path d="M12.0142 59.1961C15.1524 57.3223 17.4691 54.3345 18.5022 50.8285C18.6043 50.481 19.1382 50.6578 19.0362 51.0048C17.9542 54.6512 15.5371 57.7556 12.2671 59.6984C11.9553 59.8833 11.7041 59.3801 12.0142 59.1961Z" fill="white"/>
<path d="M15.1367 28.5168C15.775 28.8201 16.4786 28.9601 17.1844 28.9243C17.8902 28.8885 18.576 28.6779 19.1803 28.3115C19.4896 28.1227 19.7405 28.6262 19.4332 28.8137C18.7637 29.2154 18.006 29.447 17.2263 29.4883C16.4466 29.5297 15.6686 29.3794 14.9604 29.0507C14.8911 29.0253 14.834 28.9745 14.8008 28.9085C14.7676 28.8426 14.7607 28.7664 14.7816 28.6956C14.8053 28.625 14.8559 28.5666 14.9224 28.5332C14.9889 28.4997 15.0659 28.4938 15.1367 28.5168Z" fill="white"/>
<path d="M58.6645 41.4453C58.4747 41.5687 58.285 41.6921 58.0949 41.8202C55.552 43.4924 53.1492 45.3683 50.9101 47.4296C50.7344 47.5862 50.5588 47.7476 50.388 47.9089C45.0464 52.9326 40.6839 58.9042 37.5223 65.5204C36.2667 68.1543 35.2132 70.8799 34.3711 73.6736C33.2083 77.5319 32.2545 81.8078 29.9528 84.9637C29.7164 85.2957 29.4596 85.6127 29.184 85.9129H8.38331C8.33603 85.8891 8.28853 85.8701 8.24103 85.8464L7.41052 85.8844C7.44389 85.7373 7.48166 85.5854 7.51503 85.4383C7.53401 85.3529 7.55767 85.2674 7.57667 85.182C7.59081 85.1251 7.60517 85.0681 7.61467 85.0159C7.61931 84.9969 7.62416 84.978 7.62881 84.9637C7.6383 84.9115 7.65268 84.864 7.66218 84.8166C7.87096 83.9671 8.08608 83.1176 8.30753 82.2681C8.30753 82.2634 8.30753 82.2634 8.31217 82.2586C10.016 75.7902 12.2749 69.4072 15.4308 63.5699C15.5258 63.3943 15.6206 63.214 15.7251 63.0384C17.1622 60.4151 18.8113 57.9137 20.656 55.5591C21.6702 54.273 22.7488 53.0392 23.8878 51.8622C26.8367 48.8267 30.2446 46.2739 33.9867 44.2975C41.4471 40.3585 50.0842 38.8494 58.0572 41.2555C58.2611 41.3172 58.4606 41.3788 58.6645 41.4453Z" fill="#0EB46A"/>
<path d="M58.6177 41.7093C48.2598 43.7665 38.8134 49.0351 31.6203 56.7667C30.0423 58.4036 28.7321 60.2791 27.738 62.324C26.8341 64.3473 26.4884 66.5758 26.737 68.7778C26.9275 70.8357 27.3607 72.9187 27.0476 74.987C26.8717 76.0434 26.4744 77.0506 25.8819 77.9427C25.2893 78.8347 24.5149 79.5915 23.6094 80.1632C21.3902 81.6466 18.7704 82.2442 16.1881 82.7395C13.3209 83.2894 10.3342 83.8152 7.94125 85.6061C7.65131 85.8231 7.33156 85.3606 7.62106 85.1439C11.7843 82.028 17.3634 82.6819 21.9179 80.4822C24.0431 79.4558 25.8718 77.7827 26.3983 75.4046C26.8587 73.3251 26.4138 71.1768 26.2029 69.0948C25.9289 66.9501 26.1843 64.771 26.9466 62.7478C27.8333 60.6589 29.0691 58.7361 30.6009 57.0617C33.9894 53.2372 37.9582 49.9693 42.3619 47.3777C47.3714 44.392 52.8547 42.2852 58.5745 41.1486C58.9286 41.0784 58.9694 41.6396 58.6177 41.7093Z" fill="white"/>
<path d="M33.7899 54.1408C32.6566 52.7578 32.0517 51.017 32.0834 49.2293C32.115 47.4416 32.7811 45.7233 33.9627 44.3813C34.2027 44.1106 34.6347 44.4708 34.3943 44.7419C33.2917 45.9895 32.6714 47.5902 32.6453 49.255C32.6193 50.9198 33.1892 52.5391 34.2522 53.8206C34.4829 54.0993 34.0193 54.4179 33.7899 54.1408Z" fill="white"/>
<path d="M26.503 67.7471C30.1369 68.1404 33.7855 67.1496 36.7212 64.9723C37.0119 64.7563 37.3318 65.2188 37.0414 65.4345C33.9822 67.6946 30.1831 68.7179 26.4026 68.3003C26.0422 68.2603 26.1446 67.7073 26.503 67.7471Z" fill="white"/>
<path d="M47.4672 45.1314C47.7942 45.7578 48.2717 46.2933 48.8568 46.6896C49.4419 47.0859 50.1163 47.3307 50.8194 47.402C51.18 47.4374 51.0772 47.9905 50.7189 47.9553C49.9425 47.8729 49.1981 47.6016 48.5506 47.1652C47.9032 46.7287 47.3726 46.1404 47.005 45.4515C46.9649 45.3895 46.9499 45.3146 46.9631 45.2419C46.9763 45.1692 47.0167 45.1043 47.076 45.0603C47.1374 45.0183 47.213 45.0021 47.2862 45.0154C47.3595 45.0287 47.4245 45.0704 47.4672 45.1314Z" fill="white"/>
<path d="M57.4621 6.89947L58.1617 7.54132L45.4789 21.3644C48.0462 20.8096 56.2159 18.7499 59.8496 14.3528C64.1906 9.09987 63.4392 5.00612 60.4086 2.50167C57.378 -0.00278483 53.2161 0.0303835 48.8749 5.28339C45.1951 9.73613 44.7457 18.307 44.6941 20.8158L57.4621 6.89947Z" fill="#0EB46A"/>
</svg>
