<svg width="193" height="91" viewBox="0 0 193 91" fill="none" xmlns="http://www.w3.org/2000/svg">
<path d="M192.841 91H0.235941C0.173366 91 0.113353 90.8947 0.0691054 90.7072C0.0248579 90.5196 0 90.2652 0 90C0 89.7348 0.0248579 89.4804 0.0691054 89.2929C0.113353 89.1054 0.173366 89 0.235941 89H192.764C192.827 89 192.887 89.1054 192.931 89.2929C192.975 89.4804 193 89.7348 193 90C193 90.5523 192.971 91 192.841 91Z" fill="#F0F0F0"/>
<path d="M180.076 44.2C178.203 29.1388 168.868 14.2992 154.505 9.39783C160.169 24.9 160.168 41.9063 154.501 57.4076C152.294 63.3779 149.217 69.7885 151.294 75.8057C152.585 79.5497 155.745 82.4143 159.278 84.2054C162.81 85.9965 166.731 86.8502 170.602 87.6868L171.364 88.3169C177.51 74.4396 181.949 59.2612 180.076 44.2Z" fill="#065739"/>
<path d="M154.362 9.68261C162.727 19.0551 167.926 30.825 169.221 43.3206C169.482 45.9993 169.513 48.7393 168.928 51.3796C168.337 53.9489 167.07 56.3131 165.256 58.2267C163.601 60.0448 161.698 61.713 160.514 63.9018C159.266 66.2089 159.218 68.8303 160.073 71.2809C161.118 74.2793 163.178 76.7232 165.276 79.0431C167.606 81.619 170.066 84.2576 171.056 87.6725C171.176 88.0863 171.811 87.8759 171.691 87.4628C169.969 81.5214 164.201 78.1466 161.451 72.7953C160.167 70.2983 159.629 67.3994 160.832 64.7635C161.884 62.4586 163.845 60.7367 165.537 58.9102C167.313 56.9924 168.674 54.8882 169.376 52.349C170.094 49.7516 170.169 47.0046 169.978 44.331C169.498 38.2714 168.069 32.3249 165.743 26.7093C163.123 20.2856 159.424 14.3573 154.805 9.18094C154.519 8.86068 154.078 9.36444 154.362 9.68261Z" fill="white"/>
<path d="M169.041 39.2725C171.108 38.7707 172.929 37.5505 174.179 35.8298C175.43 34.1091 176.028 31.9999 175.866 29.879C175.832 29.45 175.164 29.4828 175.198 29.9124C175.352 31.8871 174.795 33.8517 173.627 35.4517C172.459 37.0516 170.758 38.1815 168.831 38.6373C168.412 38.7369 168.624 39.3715 169.041 39.2725Z" fill="white"/>
<path d="M166.217 57.4153C162.484 55.1862 159.728 51.6319 158.499 47.4612C158.377 47.0478 157.742 47.2581 157.863 47.6709C159.15 52.0087 162.026 55.7017 165.916 58.0127C166.287 58.2328 166.586 57.6341 166.217 57.4153Z" fill="white"/>
<path d="M162.502 20.9192C161.743 21.2801 160.906 21.4466 160.066 21.404C159.227 21.3614 158.411 21.1109 157.692 20.6751C157.324 20.4504 157.026 21.0493 157.391 21.2725C158.188 21.7504 159.089 22.0259 160.017 22.075C160.944 22.1242 161.869 21.9454 162.712 21.5544C162.794 21.5242 162.862 21.4637 162.902 21.3853C162.941 21.3068 162.95 21.2162 162.925 21.132C162.897 21.048 162.836 20.9786 162.757 20.9387C162.678 20.8989 162.586 20.8919 162.502 20.9192Z" fill="white"/>
<path d="M110.722 36.299C110.947 36.4458 111.173 36.5925 111.399 36.745C114.424 38.7342 117.283 40.9659 119.946 43.418C120.155 43.6043 120.364 43.7962 120.567 43.9882C126.922 49.9643 132.111 57.0681 135.872 64.9387C137.366 68.072 138.619 71.3143 139.621 74.6377C141.004 79.2275 142.139 84.3141 144.877 88.0684C145.158 88.4633 145.464 88.8404 145.792 89.1975H170.536C170.592 89.1693 170.649 89.1467 170.705 89.1185L171.693 89.1636C171.654 88.9886 171.609 88.808 171.569 88.6329C171.546 88.5313 171.518 88.4297 171.496 88.3281C171.479 88.2604 171.462 88.1926 171.45 88.1305C171.445 88.1079 171.439 88.0853 171.434 88.0684C171.422 88.0063 171.405 87.9498 171.394 87.8934C171.146 86.8829 170.89 85.8723 170.626 84.8618C170.626 84.8561 170.626 84.8561 170.621 84.8505C168.594 77.1556 165.907 69.5624 162.152 62.6184C162.039 62.4095 161.927 62.195 161.802 61.9861C160.093 58.8655 158.131 55.8898 155.937 53.0888C154.73 51.5589 153.447 50.091 152.092 48.6909C148.584 45.0799 144.53 42.0431 140.078 39.6919C131.204 35.0062 120.929 33.2109 111.444 36.0732C111.202 36.1466 110.964 36.2199 110.722 36.299Z" fill="#065739"/>
<path d="M110.777 36.613C123.099 39.0603 134.336 45.3277 142.893 54.5252C144.715 56.5068 146.39 58.6755 147.512 61.1362C148.587 63.5431 148.998 66.1941 148.703 68.8137C148.476 71.2617 147.961 73.7396 148.333 76.2001C148.726 78.7936 150.266 80.9154 152.423 82.3577C155.063 84.1224 158.18 84.8332 161.252 85.4224C164.662 86.0766 168.215 86.7021 171.062 88.8326C171.407 89.0907 171.787 88.5404 171.443 88.2827C166.49 84.5761 159.853 85.3539 154.435 82.7372C151.907 81.5161 149.732 79.5259 149.105 76.6969C148.558 74.223 149.087 71.6674 149.338 69.1907C149.601 66.5901 149.422 64.0901 148.453 61.6404C147.462 59.1344 145.869 56.8957 144.106 54.8762C140.075 50.3266 135.354 46.4391 130.115 43.3561C124.156 39.8043 117.633 37.2981 110.829 35.9459C110.408 35.8624 110.359 36.53 110.777 36.613Z" fill="white"/>
<path d="M140.312 51.4015C141.661 49.7563 142.38 47.6855 142.343 45.5588C142.305 43.4321 141.513 41.388 140.107 39.7916C139.821 39.4696 139.308 39.8982 139.593 40.2206C140.905 41.7048 141.643 43.6089 141.674 45.5894C141.705 47.5698 141.027 49.4961 139.763 51.0206C139.488 51.3522 140.04 51.7312 140.312 51.4015Z" fill="white"/>
<path d="M148.981 67.5876C144.658 68.0555 140.318 66.8768 136.825 64.2867C136.48 64.0298 136.099 64.58 136.444 64.8366C140.084 67.5251 144.603 68.7425 149.1 68.2457C149.529 68.1981 149.407 67.5402 148.981 67.5876Z" fill="white"/>
<path d="M124.042 40.6839C123.653 41.4292 123.085 42.0661 122.389 42.5376C121.693 43.0091 120.891 43.3003 120.054 43.3851C119.625 43.4272 119.748 44.0851 120.174 44.0432C121.097 43.9452 121.983 43.6225 122.753 43.1033C123.523 42.5842 124.155 41.8843 124.592 41.0648C124.64 40.991 124.657 40.9019 124.642 40.8154C124.626 40.729 124.578 40.6517 124.507 40.5994C124.434 40.5494 124.344 40.5301 124.257 40.546C124.17 40.5618 124.093 40.6114 124.042 40.6839Z" fill="white"/>
<path d="M138.188 4.67691L138.823 5.04492L131.552 17.6119C133.399 16.7632 139.228 13.8402 141.238 9.90978C143.64 5.21421 142.387 2.24642 139.678 0.860828C136.969 -0.524766 133.83 0.196482 131.428 4.8921C129.392 8.87237 130.486 15.4242 130.867 17.3286L138.188 4.67691Z" fill="#065739"/>
</svg>
