<svg width="17" height="17" viewBox="0 0 17 17" fill="none" xmlns="http://www.w3.org/2000/svg">
<path d="M15.7422 0H1.25437C1.24983 0 1.24473 0 1.23906 0C0.559449 0 0.00793545 0.546413 0 1.22376V15.7751C0.00793545 16.453 0.559449 17 1.23906 17C1.24473 17 1.24983 17 1.2555 17H15.7405C15.7451 17 15.7507 17 15.7564 17C16.4366 17 16.9892 16.4542 17 15.7762V15.7751V1.22489C16.9892 0.546412 16.4366 0 15.7558 0C15.7502 0 15.7451 0 15.7394 0H15.7422ZM5.04184 14.4867H2.51724V6.375H5.04184V14.4867ZM3.78011 5.26517C2.97239 5.26517 2.31828 4.6105 2.31828 3.80335C2.31828 2.9962 2.97296 2.34152 3.78011 2.34152C4.58726 2.34152 5.24193 2.99563 5.24193 3.80278C5.24193 3.80335 5.24193 3.80391 5.24193 3.80505C5.24193 4.61163 4.58782 5.26574 3.78124 5.26574C3.78067 5.26574 3.78011 5.26574 3.77954 5.26574L3.78011 5.26517ZM14.4828 14.4867H11.9655V10.5422C11.9655 9.60133 11.9463 8.39117 10.6539 8.39117C9.34116 8.39117 9.14107 9.41485 9.14107 10.4731V14.4873H6.62383V6.37557H9.04188V7.48143H9.07475C9.54408 6.69072 10.3932 6.16925 11.3641 6.16925C11.3987 6.16925 11.4327 6.16981 11.4667 6.17095H11.4616C14.0123 6.17095 14.4839 7.84986 14.4839 10.0349V14.4873L14.4828 14.4867Z" fill="#ffffff"/>
</svg>
