<svg width="143" height="177" viewBox="0 0 143 177" fill="none" xmlns="http://www.w3.org/2000/svg">
<path d="M65.9647 175.088C65.9647 175.088 28.0692 178.843 25.2506 174.462C22.4319 170.082 63.7066 165.701 63.7066 165.701L65.9647 175.088Z" fill="#FFB6B6"/>
<path d="M41.8024 104.892L41.0194 109.044C43.1522 112.189 43.3558 115.512 42.1156 118.972L85.3352 119.285C84.8716 114.608 84.3612 109.595 86.14 104.998L41.8024 104.892Z" fill="#A0616A"/>
<path d="M112.595 135.766L96.92 123.237C94.8373 121.573 93.4874 119.098 93.2212 116.447L90.8066 92.5825L105.197 87.7888L108.668 111.419L117.315 131.054L112.598 135.766H112.595Z" fill="#FFB6B6"/>
<path d="M86.14 115.324C89.2938 119.476 90.6154 129.473 91.9559 139.417C91.9559 139.417 33.7034 139.105 33.3902 139.105C33.077 139.105 42.2941 118.14 42.2941 118.14L86.14 115.324Z" fill="#2F2E41"/>
<path d="M88.0442 136.764L91.959 139.417C91.959 139.417 147.393 135.663 142.695 153.185C137.997 170.707 123.278 173.524 123.278 173.524L63.7724 176.965L63.146 167.266C63.146 167.266 5.83304 180.094 0.508882 153.811C-4.81527 127.527 33.3934 139.105 33.3934 139.105L88.0442 136.764Z" fill="#2F2E41"/>
<path d="M64.6524 157.566C64.6524 157.566 65.9647 150.682 75.3602 153.498C84.7558 156.314 90.0799 160.069 90.0799 160.069L67.5306 165.701L64.6524 157.566Z" fill="#FFB6B6"/>
<path d="M88.1539 61.3989C88.1539 61.3989 95.5428 61.8988 104.043 66.9655C108.114 79.1686 106.005 92.0631 106.005 92.0631L90.3462 97.0695L88.1539 61.3989Z" fill="#E6E6E6"/>
<path d="M15.1347 137.671L11.7178 131.657L19.0996 113.3L22.5697 89.6662L36.9606 94.4599L34.5146 118.616C34.2641 121.085 33.0082 123.388 31.0696 124.936L15.1347 137.675V137.671Z" fill="#FFB6B6"/>
<path d="M41.0428 59.9655C41.0428 59.9655 30.6952 62.1092 23.665 66.7768C19.2615 79.4347 21.7353 91.7725 21.7353 91.7725L38.6717 96.9655L41.0428 59.9655Z" fill="#E6E6E6"/>
<path d="M117.123 138.529C121.275 138.529 124.64 133.556 124.64 127.421C124.64 121.286 121.275 116.313 117.123 116.313C112.972 116.313 109.607 121.286 109.607 127.421C109.607 133.556 112.972 138.529 117.123 138.529Z" fill="#FFB6B6"/>
<path d="M11.58 140.406C15.7312 140.406 19.0964 135.433 19.0964 129.298C19.0964 123.163 15.7312 118.19 11.58 118.19C7.42877 118.19 4.06354 123.163 4.06354 129.298C4.06354 135.433 7.42877 140.406 11.58 140.406Z" fill="#FFB6B6"/>
<path d="M40.2834 147.866L67.5306 155.688L72.8547 165.075L62.6731 167.266" fill="#2F2E41"/>
<path d="M78.0428 45.9655C76.9351 44.8226 76.9659 42.156 77.1197 40.9655L72.0428 44.5369L72.9659 50.9655L75.7351 50.2512V47.3941L78.0428 45.9655Z" fill="#2F2E41"/>
<path d="M49.5729 46.5348C51.1392 46.8174 52.6691 49.0017 53.2383 50.0586L55.2803 44.1968L50.782 39.5124L48.9487 41.7074L50.6147 44.0286L49.5729 46.5348Z" fill="#2F2E41"/>
<path d="M72.0727 58.7043L75.0428 42.9129L55.0092 35.9655L52.0428 59.9655L72.0727 58.7043Z" fill="#FFB6B6"/>
<path d="M64.6686 48.1543C75.7841 48.1543 84.7949 39.1434 84.7949 28.0279C84.7949 16.9125 75.7841 7.90161 64.6686 7.90161C53.5532 7.90161 44.5423 16.9125 44.5423 28.0279C44.5423 39.1434 53.5532 48.1543 64.6686 48.1543Z" fill="#FFB6B6"/>
<path d="M79.1071 33.7158C79.1071 33.7158 80.8572 27.5904 84.7949 28.0279C86.1075 28.0279 87.9178 24.2156 87.0428 22.4655C86.1677 20.7154 86.1075 12.7144 86.1075 12.7144C86.1075 12.7144 86.9826 6.58903 81.7323 5.71397C76.4819 4.83892 74.7318 3.96386 73.8567 2.21374C72.9817 0.463624 59.8558 -1.28649 55.4805 1.33868C51.1052 3.96386 47.605 9.0006 44.5423 10.42C41.4796 11.8394 38.8544 14.4645 40.6046 18.8398C42.3547 23.2151 44.8928 31.7722 44.8928 31.7722C44.8928 31.7722 45.0428 33.9655 46.5428 35.9655C47.4178 38.5907 47.605 31.9657 51.9803 24.9652C56.3556 17.9648 56.3556 10.9643 63.356 13.5895C70.3565 16.2147 78.232 15.3396 77.357 20.5899C76.4819 25.8403 79.1071 33.7158 79.1071 33.7158Z" fill="#2F2E41"/>
<path d="M52.2775 53.2278L74.4969 51.9655L98.0428 66.1958L90 124L38 128.5L33.0428 64.5884L52.2775 53.2278Z" fill="#E6E6E6"/>
</svg>
