<svg width="485" height="356" viewBox="0 0 485 356" fill="none" xmlns="http://www.w3.org/2000/svg">
<path d="M389.421 78.7609L380.225 56.7079L350.338 62.0721L348.327 88.0181L389.421 78.7609Z" fill="#FFB6B6"/>
<path opacity="0.1" d="M389.421 78.7609L380.225 56.7079L350.338 62.0721L348.327 88.0181L389.421 78.7609Z" fill="black"/>
<path d="M362.514 65.5138C377.375 65.5138 389.421 53.467 389.421 38.6066C389.421 23.7461 377.375 11.6993 362.514 11.6993C347.654 11.6993 335.607 23.7461 335.607 38.6066C335.607 53.467 347.654 65.5138 362.514 65.5138Z" fill="#FFB6B6"/>
<path d="M381.801 45.9449C381.801 45.9449 384.177 37.7679 389.524 38.352C394.871 38.9361 396.059 34.2635 394.871 31.9272C393.683 29.5909 391.306 17.9094 391.306 17.9094C391.306 17.9094 392.494 9.7324 385.365 8.56425C378.236 7.39611 375.86 6.22796 374.672 3.89167C373.483 1.55537 355.661 -0.780922 349.72 2.72352C343.779 6.22796 339.026 12.9517 334.867 14.8465C330.709 16.7413 327.144 20.2457 329.52 26.0865C331.897 31.9272 335.343 43.3504 335.343 43.3504C335.343 43.3504 341.402 41.2724 342.59 44.7768C343.779 48.2812 339.026 43.6086 344.967 34.2635C350.908 24.9183 350.908 15.5731 360.413 19.0776C369.919 22.582 380.613 21.4139 379.424 28.4227C378.236 35.4316 381.801 45.9449 381.801 45.9449Z" fill="#2F2E41"/>
<path d="M453.671 121.447C453.671 121.447 432.442 81.7818 428.425 77.7578C426.637 75.9664 423.827 75.9415 421.257 76.4636L391.705 66.2606L381.688 60.6216L381.028 71.3497L349.247 77.2126C349.429 70.6702 349.247 68.2326 349.247 68.2326L337.198 82.3567L313.674 93.8539L313.686 93.9574C311.96 94.5612 310.323 95.5943 309.083 97.3031C304.493 103.627 294.512 163.492 294.512 163.492L321.479 169.241L325.149 146.166L325.149 184.107L327.157 222.91C327.157 222.91 363.877 254.528 381.664 243.031C399.45 231.533 421.253 232.108 421.253 232.108L421.797 214.122C422.185 213.502 422.401 213.138 422.401 213.138L421.827 149.337V132.36C426.198 138.462 431.473 143.709 437.605 146.166C457.687 154.214 453.671 121.447 453.671 121.447Z" fill="#F6F6F6"/>
<path d="M382.448 116.676L382.445 116.631C382.58 104.403 381.019 92.2139 377.806 80.4137L377.803 80.3944C377.645 79.1921 377.779 77.9693 378.195 76.8301C379.46 73.5691 382.919 71.7236 386.331 72.489C389.852 73.3575 393.567 72.9356 396.803 71.2999C398.859 70.2566 401.284 70.2323 403.36 71.2343C405.319 72.164 406.722 73.966 407.143 76.093C407.176 76.2603 407.204 76.4289 407.226 76.6001C406.651 88.862 408.221 101.13 411.865 112.852L411.866 112.867C412.182 115.263 411.329 117.665 409.574 119.326C408.026 120.731 405.932 121.369 403.863 121.068C400.146 120.604 396.266 121.146 392.002 122.725C390.511 123.29 388.87 123.313 387.364 122.79C384.702 121.844 382.8 119.479 382.448 116.676Z" fill="#6C63FF"/>
<path d="M443.366 112.268L416.354 98.8844C416.354 98.8844 415.269 89.9264 410.203 86.7313C409.241 85.0828 406.459 85.0828 406.459 85.0828L401.071 86.7018C401.071 86.7018 394.942 90.2984 393.143 92.107C391.586 93.6721 391.007 96.0071 391.616 98.1644C393.379 104.416 397.787 117.326 404.113 117.326C412.459 117.326 414.684 115.597 414.684 115.597C414.684 115.597 431.933 138.073 444.73 139.802C457.528 141.531 443.366 112.268 443.366 112.268Z" fill="#FFB6B6"/>
<path d="M0 184.824V492.112C0.00645705 500.265 6.61614 506.874 14.7716 506.88H470.228C478.384 506.874 484.994 500.265 485 492.112V184.824C484.981 176.678 478.376 170.082 470.228 170.072H14.7716C6.62414 170.082 0.0193982 176.678 0 184.824Z" fill="#3F3D56"/>
<path d="M466.429 180.738H18.5712C14.2086 180.748 10.677 184.286 10.6766 188.648V488.321C10.6841 492.677 14.2142 496.207 18.5712 496.214H466.429C470.786 496.207 474.316 492.677 474.323 488.321V188.648C474.323 184.286 470.791 180.748 466.429 180.738ZM353.455 393.643C352.117 396.287 349.402 397.951 346.438 397.944L346.391 397.941C342.097 397.343 337.788 396.948 333.463 396.758C334.134 397.238 334.725 397.823 335.214 398.489C336.469 400.287 336.855 402.552 336.265 404.664C335.287 408.471 335.333 412.581 336.408 417.229C336.798 418.856 336.603 420.567 335.857 422.065C334.519 424.709 331.804 426.373 328.84 426.366L328.793 426.362C318.54 424.935 308.159 424.658 297.844 425.538C297.803 425.798 297.752 426.059 297.685 426.319C296.707 430.125 296.753 434.235 297.828 438.884C298.218 440.51 298.023 442.222 297.277 443.719C295.939 446.363 293.224 448.027 290.26 448.02L290.213 448.017C279.683 446.551 269.019 446.3 258.432 447.269C258.351 449.912 258.626 452.555 259.248 455.125C259.638 456.752 259.443 458.463 258.698 459.96C257.359 462.604 254.644 464.268 251.68 464.261L251.633 464.258C238.924 462.488 226.032 462.488 213.323 464.258H213.302C212.03 464.263 210.775 463.96 209.645 463.376C206.42 461.625 204.961 457.779 206.212 454.33C206.596 453.244 206.881 452.125 207.065 450.988C195.418 449.646 183.648 449.785 172.036 451.401H172.015C170.743 451.406 169.488 451.103 168.358 450.518C165.133 448.767 163.673 444.921 164.925 441.472C166.298 437.924 166.354 434.001 165.084 430.415C164.485 428.734 164.485 426.897 165.083 425.215C156.329 424.769 147.552 425.153 138.871 426.362H138.85C137.578 426.367 136.323 426.065 135.193 425.48C131.968 423.729 130.508 419.883 131.76 416.434C133.133 412.886 133.189 408.963 131.918 405.377C131.107 403.099 131.405 400.572 132.724 398.545C133.953 396.63 136.015 395.41 138.285 395.255C138.463 395.243 138.642 395.237 138.824 395.237C143.272 396.015 147.763 396.522 152.272 396.756C149.395 394.866 148.19 391.25 149.358 388.012C150.731 384.464 150.787 380.541 149.516 376.955C148.704 374.677 149.002 372.15 150.322 370.123C150.379 370.036 150.446 369.958 150.506 369.874C147.297 370.095 144.095 370.428 140.901 370.872H140.881C139.608 370.877 138.354 370.575 137.223 369.99C133.998 368.239 132.539 364.393 133.79 360.944C135.163 357.396 135.22 353.473 133.949 349.887C133.137 347.608 133.435 345.082 134.755 343.055C135.983 341.14 138.046 339.92 140.315 339.765C140.494 339.753 140.673 339.747 140.854 339.747C146.203 340.683 151.612 341.228 157.04 341.376C155.655 339.381 155.315 336.841 156.126 334.552C157.499 331.004 157.555 327.081 156.285 323.495C155.473 321.217 155.771 318.69 157.09 316.663C158.319 314.749 160.381 313.529 162.651 313.374C162.83 313.362 163.009 313.355 163.19 313.355C167.716 314.147 172.286 314.658 176.876 314.887C175.89 313.021 175.729 310.828 176.431 308.837C177.804 305.289 177.861 301.366 176.59 297.78C175.778 295.502 176.076 292.975 177.396 290.948C178.624 289.034 180.687 287.814 182.956 287.659C183.135 287.647 183.314 287.641 183.495 287.641C188.821 288.573 194.207 289.116 199.612 289.267C198.876 287.529 198.816 285.579 199.444 283.799C200.817 280.251 200.873 276.328 199.602 272.742C198.791 270.464 199.089 267.937 200.408 265.91C201.637 263.996 203.699 262.776 205.969 262.621C206.147 262.609 206.326 262.602 206.508 262.602C219.192 264.835 232.169 264.836 244.853 262.607H244.869C245.848 262.809 246.858 262.809 247.837 262.607H247.853C260.538 264.836 273.515 264.835 286.199 262.602C286.38 262.602 286.559 262.609 286.738 262.621C289.007 262.776 291.07 263.996 292.298 265.91C293.618 267.937 293.916 270.464 293.104 272.742C291.833 276.328 291.89 280.251 293.263 283.799C293.89 285.579 293.83 287.529 293.095 289.267C298.499 289.116 303.886 288.573 309.211 287.641C309.393 287.641 309.572 287.647 309.75 287.659C312.02 287.814 314.082 289.034 315.311 290.948C316.63 292.975 316.928 295.502 316.117 297.78C314.846 301.366 314.902 305.289 316.275 308.837C316.978 310.828 316.817 313.021 315.831 314.887C320.42 314.658 324.991 314.147 329.517 313.355C329.698 313.355 329.877 313.362 330.055 313.374C332.325 313.529 334.387 314.749 335.616 316.663C336.936 318.69 337.234 321.217 336.422 323.495C335.151 327.081 335.207 331.004 336.58 334.552C337.394 336.847 337.05 339.394 335.657 341.391C336.261 341.847 336.796 342.389 337.244 342.999C338.499 344.797 338.885 347.062 338.296 349.174C337.317 352.981 337.364 357.091 338.438 361.739C338.828 363.366 338.633 365.077 337.888 366.575C337.615 367.107 337.283 367.608 336.898 368.066C340.066 367.788 343.227 367.373 346.379 366.82H346.395C348.931 366.811 351.317 368.019 352.811 370.067C354.067 371.865 354.452 374.13 353.863 376.242C352.885 380.049 352.931 384.159 354.006 388.808C354.396 390.434 354.201 392.146 353.455 393.643Z" fill="white"/>
<path d="M451.903 222.019H32.8439C31.9236 221.999 31.1939 221.237 31.2142 220.317C31.2338 219.425 31.9521 218.707 32.8439 218.687H451.903C452.823 218.707 453.553 219.47 453.532 220.39C453.513 221.282 452.794 222 451.903 222.019Z" fill="#E6E6E6"/>
<path d="M96.771 206.552C99.9322 206.552 102.495 203.933 102.495 200.702C102.495 197.471 99.9322 194.852 96.771 194.852C93.6099 194.852 91.0472 197.471 91.0472 200.702C91.0472 203.933 93.6099 206.552 96.771 206.552Z" fill="#3F3D56"/>
<path d="M116.544 206.552C119.705 206.552 122.268 203.933 122.268 200.702C122.268 197.471 119.705 194.852 116.544 194.852C113.383 194.852 110.82 197.471 110.82 200.702C110.82 203.933 113.383 206.552 116.544 206.552Z" fill="#3F3D56"/>
<path d="M136.317 206.552C139.478 206.552 142.041 203.933 142.041 200.702C142.041 197.471 139.478 194.852 136.317 194.852C133.156 194.852 130.593 197.471 130.593 200.702C130.593 203.933 133.156 206.552 136.317 206.552Z" fill="#3F3D56"/>
<path d="M158.863 205.326C158.688 205.326 158.512 205.257 158.38 205.122L154.518 201.175C154.26 200.912 154.26 200.491 154.518 200.228L158.38 196.282C158.642 196.015 159.071 196.01 159.337 196.271C159.604 196.532 159.609 196.961 159.347 197.228L155.948 200.702L159.347 204.176C159.609 204.443 159.604 204.871 159.337 205.133C159.205 205.261 159.034 205.326 158.863 205.326Z" fill="#3F3D56"/>
<path d="M165.353 205.326C165.183 205.326 165.012 205.262 164.88 205.133C164.613 204.871 164.608 204.443 164.87 204.176L168.268 200.702L164.87 197.228C164.608 196.961 164.613 196.532 164.88 196.271C165.147 196.009 165.576 196.014 165.837 196.282L169.699 200.228C169.956 200.492 169.956 200.912 169.699 201.175L165.837 205.122C165.705 205.258 165.529 205.326 165.353 205.326Z" fill="#3F3D56"/>
<path d="M367.397 195.529H360.215C359.396 195.529 358.733 196.192 358.733 197.011V204.198C358.733 205.016 359.396 205.679 360.215 205.679H367.397C368.216 205.679 368.886 205.016 368.886 204.198V197.011C368.886 196.192 368.216 195.529 367.397 195.529Z" fill="#3F3D56"/>
<path d="M349.799 195.529H342.618C341.799 195.529 341.135 196.192 341.135 197.011V204.198C341.135 205.016 341.799 205.679 342.618 205.679H349.799C350.618 205.679 351.288 205.016 351.288 204.198V197.011C351.288 196.192 350.618 195.529 349.799 195.529Z" fill="#3F3D56"/>
<path d="M383.979 195.867H376.798C375.979 195.867 375.316 196.53 375.316 197.349V204.536C375.316 205.355 375.979 206.018 376.798 206.018H383.979C384.798 206.018 385.468 205.355 385.468 204.536V197.349C385.468 196.53 384.798 195.867 383.979 195.867Z" fill="#3F3D56"/>
<path d="M275.738 198.601H218.335C217.333 198.601 216.528 199.413 216.528 200.408C216.528 201.403 217.333 202.215 218.335 202.215H275.738C276.733 202.215 277.545 201.403 277.545 200.408C277.545 199.413 276.733 198.601 275.738 198.601Z" fill="#3F3D56"/>
<path d="M329.533 342.774L329.488 342.771C317.357 341.081 305.05 341.081 292.919 342.771H292.899C291.685 342.776 290.487 342.487 289.408 341.929C286.33 340.258 284.937 336.587 286.131 333.294C287.442 329.907 287.496 326.163 286.283 322.739C285.508 320.565 285.792 318.153 287.052 316.218C288.225 314.39 290.193 313.226 292.36 313.078C292.53 313.066 292.701 313.06 292.874 313.06C304.982 315.191 317.369 315.193 329.477 313.065H329.493C331.913 313.057 334.191 314.209 335.617 316.164C336.815 317.881 337.184 320.043 336.621 322.059C335.687 325.693 335.731 329.616 336.757 334.053C337.129 335.606 336.943 337.24 336.232 338.669C334.954 341.193 332.362 342.781 329.533 342.774Z" fill="#6C63FF"/>
<path d="M242.451 291.895L242.407 291.892C230.276 290.202 217.969 290.202 205.837 291.892H205.818C204.603 291.897 203.406 291.608 202.327 291.05C199.248 289.378 197.855 285.707 199.05 282.415C200.361 279.028 200.414 275.283 199.201 271.86C198.426 269.685 198.711 267.274 199.97 265.339C201.143 263.511 203.112 262.347 205.278 262.199C205.449 262.187 205.62 262.181 205.793 262.181C217.901 264.312 230.287 264.314 242.396 262.186H242.411C244.832 262.178 247.109 263.33 248.536 265.285C249.734 267.002 250.102 269.164 249.539 271.18C248.606 274.813 248.65 278.737 249.676 283.174C250.048 284.727 249.862 286.361 249.15 287.79C247.872 290.314 245.281 291.902 242.451 291.895Z" fill="#6C63FF"/>
<path d="M304.049 244.096L304.092 244.086C315.907 242.067 327.385 238.419 338.198 233.247L338.216 233.241C339.347 232.876 340.55 232.791 341.722 232.992C345.088 233.639 347.476 236.651 347.338 240.077C347.12 243.626 348.179 247.135 350.326 249.969C351.693 251.769 352.143 254.103 351.542 256.282C350.99 258.335 349.499 260.005 347.522 260.785C347.367 260.846 347.209 260.902 347.048 260.954C335.124 262.555 323.571 266.225 312.909 271.799L312.894 271.803C310.64 272.529 308.174 272.128 306.264 270.727C304.637 269.481 303.653 267.573 303.58 265.525C303.374 261.858 302.169 258.211 299.897 254.375C299.09 253.036 298.779 251.457 299.019 249.913C299.462 247.179 301.409 244.929 304.049 244.096Z" fill="#6C63FF"/>
<path d="M323.156 258.421C328.428 257.32 331.3 249.711 329.57 241.425C328.813 237.798 327.299 234.643 325.395 232.334L324.34 227.581L319.052 191.049C319.052 191.049 317.172 173.668 316.253 168.856L293.291 175.875L308.624 228.001L310.666 235.409C309.844 238.288 309.719 241.785 310.477 245.412C312.206 253.697 317.883 259.522 323.156 258.421Z" fill="#FFB6B6"/>
<path d="M293.291 176.356L295.692 162.907L321.148 168.671L317.786 181.639L293.291 176.356Z" fill="#FFB6B6"/>
</svg>
