<svg width="314" height="65" viewBox="0 0 314 65" fill="none" xmlns="http://www.w3.org/2000/svg">
<path d="M287.005 47.0412C288.486 47.0412 290.67 46.8994 292.119 47.0412H300.12C300.12 47.0412 311.063 47.6257 312.62 51.9419L313.12 54.0001C313.083 54.7485 313.152 54.6076 313.12 55.5001C313.102 55.9404 309.62 63.5001 301.12 64.0001L70.2186 64.881C53.5506 64.7645 36.9433 64.6179 20.8602 64.4452C17.8418 64.4523 14.8259 64.2724 11.8297 63.9065C7.36017 63.2975 4.258 62.0904 2.34494 60.2161C-0.0339661 57.8919 -0.109497 54.9651 0.0343018 51.6583C0.327362 44.9813 0.617981 37.9669 0.90802 30.9737C1.16422 24.8105 1.41922 18.6637 1.67419 12.7788C1.83191 9.28644 2.18237 6.20381 4.88394 3.84785C7.8121 1.29988 13.1524 0.00842285 20.7568 0.00842285C20.8487 0.00842285 20.9399 0.00843832 21.0329 0.00884966C44.8643 0.10646 68.4772 9.53992 79.7904 23.4828C81.0932 25.0884 82.3071 26.8073 83.4811 28.4699C85.1973 31.0222 87.0915 33.4502 89.1495 35.7358C90.2926 36.9678 91.5459 38.0925 92.894 39.096C92.9859 39.1691 93.091 39.2475 93.2022 39.3218C93.4566 39.5126 93.7225 39.6965 93.9817 39.8604C95.4808 40.8598 97.0815 41.6976 98.757 42.3598L98.9244 42.4245C99.0504 42.4763 99.187 42.5282 99.3235 42.5755C100.289 42.9319 101.274 43.2348 102.273 43.4829C106.585 44.5772 111.489 44.8395 116.847 44.2619C121.796 43.7107 126.661 42.5694 131.338 40.8623C136.3 39.0571 140.944 36.8064 145.436 34.63C147.409 33.6735 149.449 32.6849 151.487 31.7481C151.87 31.5718 152.247 31.3995 152.629 31.2272C155.118 30.1105 157.375 29.1882 159.528 28.4077C164.816 26.4759 170.35 25.2959 175.967 24.9024C181.894 24.5288 187.117 25.2334 191.487 26.9917C192.701 27.4792 193.875 28.0614 194.998 28.733C200.175 31.8277 203.366 36.395 206.452 40.8121C210.29 46.3061 214.26 51.9877 222.098 54.933C231.143 58.3345 244.345 56.9214 253.685 54.4638C256.622 53.6909 259.555 52.802 262.392 51.9419C263.537 51.5945 264.684 51.2494 265.831 50.9067C268.086 50.2367 269.931 49.7233 271.638 49.2899L272.177 49.1517C272.478 49.0766 272.778 49.0015 273.084 48.93C275.112 48.4399 277 48.0543 278.859 47.751L279.299 47.6771C280.181 47.5433 281.005 47.4321 281.814 47.3385L282.137 47.3015C283.754 47.1267 285.379 47.0398 287.005 47.0412Z" fill="#0B549F"/>
</svg>
