<svg width="257" height="231" viewBox="0 0 257 231" fill="none" xmlns="http://www.w3.org/2000/svg">
<path d="M119.5 204C185.498 204 239 193.255 239 180C239 166.745 185.498 156 119.5 156C53.502 156 0 166.745 0 180C0 193.255 53.502 204 119.5 204Z" fill="#0B549F" fill-opacity="0.5"/>
<path d="M87.8369 53.7548C86.6431 52.5231 86.6763 49.6492 86.8421 48.3662L81.3706 52.2152L82.3654 59.1434L85.3499 58.3736V55.2944L87.8369 53.7548Z" fill="#2F2E41"/>
<path d="M57.1545 54.3684C58.8425 54.6729 60.4913 57.027 61.1047 58.166L63.3055 51.8488L58.4576 46.8003L56.4819 49.1659L58.2773 51.6675L57.1545 54.3684Z" fill="#2F2E41"/>
<path d="M81.4029 67.4836L84.6039 50.465L63.0134 42.9777L59.8164 68.8428L81.4029 67.4836Z" fill="#FFB6B6"/>
<path d="M73.4233 56.1137C85.4026 56.1137 95.1138 46.4025 95.1138 34.4232C95.1138 22.4439 85.4026 12.7328 73.4233 12.7328C61.444 12.7328 51.7329 22.4439 51.7329 34.4232C51.7329 46.4025 61.444 56.1137 73.4233 56.1137Z" fill="#FFB6B6"/>
<path d="M88.984 40.5532C88.984 40.5532 90.8701 33.9518 95.1139 34.4233C96.5285 34.4233 98.4795 30.3147 97.5364 28.4285C96.5933 26.5424 96.5285 17.9197 96.5285 17.9197C96.5285 17.9197 97.4715 11.3183 91.8131 10.3752C86.1548 9.43213 84.2686 8.48907 83.3256 6.60294C82.3825 4.71682 68.2366 2.83069 63.5213 5.65988C58.806 8.48907 55.0337 13.9172 51.733 15.4469C48.4323 16.9766 45.6031 19.8058 47.4892 24.5211C49.3753 29.2364 52.1108 38.4586 52.1108 38.4586C52.1108 38.4586 52.2724 40.8223 53.8889 42.9777C54.832 45.8069 55.0337 38.6671 59.749 31.1226C64.4643 23.5781 64.4643 16.0336 72.0088 18.8628C79.5533 21.6919 88.0409 20.7489 87.0978 26.4072C86.1548 32.0656 88.984 40.5532 88.984 40.5532Z" fill="#2F2E41"/>
<path d="M181.805 150.331C180.602 150.505 179.376 150.413 178.213 150.061C177.049 149.71 175.977 149.108 175.072 148.297C174.166 147.487 173.449 146.488 172.972 145.371C172.494 144.254 172.267 143.045 172.306 141.831L144.731 131.234L157.217 122.302L181.488 133.735C183.525 133.937 185.416 134.879 186.804 136.382C188.192 137.886 188.981 139.847 189.019 141.893C189.058 143.939 188.345 145.928 187.015 147.483C185.685 149.039 183.831 150.052 181.804 150.332L181.805 150.331Z" fill="#FFB7B7"/>
<path d="M166.047 142.729L170.353 127.542L170.141 127.398L129.811 100.002L94.9483 65.0208L74.6401 73.1345L75.9736 79.5623L76.0608 79.6412L122.413 121.158L122.455 121.179L166.047 142.729Z" fill="#3F3D56"/>
<path d="M124.732 177.42L62.3164 168.671L67.8096 130.371H113.761L124.732 177.42Z" fill="#FFB6B6"/>
<path d="M60.6261 173.446L124.443 175.65L119.034 111.245C119.034 111.245 116.296 101.63 114.14 97.345C112.286 93.8228 111.986 84.0183 108.233 82.6936L99.0076 68.8307C97.5536 67.0761 95.728 65.6664 93.6627 64.7035C91.5974 63.7406 89.3439 63.2486 87.0652 63.2629L57.6957 63.4637C56.9881 63.0382 50.3301 63.4438 41.8616 67.1132C41.7396 69.5256 37.1734 82.3362 37.1964 82.4751L37.2176 82.6051L37.3185 82.6936L56.8527 99.1476L60.6261 173.446Z" fill="#E6E6E6"/>
<path d="M242.203 112.121C217.707 139.629 144.005 144.876 96.0309 195.37C79.9472 146.563 102.732 62.3132 125.439 30.1843C136.343 14.7555 152.952 4.27493 171.611 1.04819C190.271 -2.17855 209.452 2.11288 224.936 12.9784C257.179 35.6047 268.378 82.7283 242.203 112.121Z" fill="#084482"/>
<path d="M183.046 85.4011C195.969 85.4011 206.444 74.9256 206.444 62.0035C206.444 49.0814 195.969 38.606 183.046 38.606C170.124 38.606 159.649 49.0814 159.649 62.0035C159.649 74.9256 170.124 85.4011 183.046 85.4011Z" fill="white"/>
<path d="M52.7554 230.344C64.2183 230.344 73.5108 221.051 73.5108 209.588C73.5108 198.125 64.2183 188.833 52.7554 188.833C41.2925 188.833 32 198.125 32 209.588C32 221.051 41.2925 230.344 52.7554 230.344Z" fill="#084482"/>
<path d="M50.3466 208.087C49.4427 207.275 48.7278 206.275 48.2521 205.157C47.7764 204.039 47.5515 202.83 47.5933 201.616C47.635 200.401 47.9424 199.211 48.4937 198.128C49.0451 197.045 49.827 196.096 50.7845 195.348L41.2456 167.39L56.1073 171.25L62.88 197.207C64.0307 198.9 64.5204 200.956 64.2562 202.985C63.992 205.015 62.9923 206.877 61.4466 208.218C59.9009 209.56 57.9166 210.288 55.87 210.264C53.8235 210.24 51.8569 209.465 50.3431 208.088L50.3466 208.087Z" fill="#FFB7B7"/>
<path d="M46.0853 191.12L60.5046 184.694L55.6604 135.922L60.172 86.7426L40.92 76.3527L36.841 81.4958V78.5805L32.1318 127.229L34.6914 143.848L46.0853 191.12Z" fill="#E6E6E6"/>
<path opacity="0.2" d="M203.2 51.4746C205.985 56.1272 206.984 61.5965 206.02 66.9035C205.055 72.2105 202.19 77.0089 197.936 80.4398C193.682 83.8706 188.318 85.7101 182.804 85.6288C177.289 85.5476 171.984 83.551 167.838 79.9964C169.535 82.8373 171.844 85.2838 174.605 87.1664C177.365 89.0489 180.511 90.3226 183.825 90.8991C187.14 91.4757 190.542 91.3414 193.798 90.5055C197.054 89.6696 200.085 88.1521 202.681 86.0582C205.277 83.9642 207.376 81.3437 208.834 78.3782C210.291 75.4128 211.071 72.1732 211.121 68.8837C211.17 65.5943 210.488 62.3337 209.12 59.3277C207.752 56.3217 205.732 53.6422 203.2 51.4746Z" fill="#231F20"/>
<path opacity="0.2" d="M231.456 18.718C250.528 43.4078 253.818 78.8915 232.685 102.737C209.072 129.379 139.635 135.194 91.7959 181.208C92.5924 186.007 93.7422 190.741 95.2361 195.37C143.099 144.754 216.63 139.494 241.069 111.92C265 84.9183 257.614 42.9945 231.456 18.718Z" fill="#231F20"/>
</svg>
