<svg width="314" height="173" viewBox="0 0 314 173" fill="none" xmlns="http://www.w3.org/2000/svg">
<path d="M232.886 52.5095L232.869 52.6983C220.996 51.8804 209.124 51.0612 197.254 50.2406C188.678 49.6493 179.803 48.9782 172.225 44.9185C169.348 43.3793 166.546 41.3243 163.283 41.1817C159.236 41.0014 155.705 43.8323 152.928 46.7848C136.518 64.2651 131.766 90.9931 113.354 106.347C124.967 77.7113 138.83 50.0411 154.816 23.5966C157.768 18.7106 161.27 13.4934 166.752 11.8997C171.982 10.3773 177.333 12.6001 182.148 15.4519C183.179 16.0643 184.186 16.7059 185.159 17.3434C192.578 22.2 199.875 27.2425 207.051 32.4709C215.863 38.8834 224.474 45.563 232.886 52.5095Z" fill="#F2F2F2" fill-opacity="0.8"/>
<path d="M271.285 89.5839C258.595 71.6709 243.851 55.3052 227.354 40.8211C222.611 36.6523 217.728 32.6373 212.705 28.7761C203.376 21.5958 193.592 15.0269 183.414 9.11073C180.076 7.17314 176.698 5.31243 173.282 3.52861C170.627 2.14881 167.8 0.886427 164.739 1.08354C162.597 1.26662 160.551 2.05336 158.838 3.35246C155.076 6.09949 152.585 10.3899 150.534 14.479C148.739 18.0648 147.065 21.7219 145.358 25.358C144.633 26.9056 143.907 28.449 143.157 29.9839C140.54 35.3606 137.861 40.7078 135.121 46.0257C131.59 52.8786 127.957 59.6798 124.221 66.4292C116.374 80.6173 108.094 94.5495 99.3804 108.226C86.5721 128.327 72.8692 147.819 58.2715 166.702C56.4807 169.013 55.7426 169.55 53.9266 171.844C53.5072 172.381 52.7607 171.626 53.1759 171.093C68.3202 151.952 81.5059 133.868 94.8007 113.393C104.824 97.955 114.297 82.1746 123.219 66.0517C126.083 60.8806 128.888 55.6774 131.632 50.4419C136.073 41.966 140.361 33.4103 144.495 24.775C145.585 22.5019 146.664 20.2204 147.732 17.9305C151.125 10.6625 156.066 -0.145309 165.607 0.0014796C168.413 0.043442 171.017 1.17998 173.475 2.43816C175.978 3.7257 178.436 5.09292 180.889 6.48111C181.871 7.0347 182.848 7.59669 183.821 8.16706C187.675 10.4066 191.472 12.7398 195.212 15.1667C201.452 19.2139 207.528 23.5029 213.439 28.0337C216.244 30.1852 219.008 32.3856 221.73 34.635C238.809 48.7648 254.165 64.8558 267.482 82.5758C269.088 84.7105 270.661 86.869 272.2 89.0512C272.594 89.6091 271.676 90.1375 271.285 89.5839Z" fill="#E4E4E4" fill-opacity="0.8"/>
<path d="M228.299 35.4831C228.853 34.8651 229.404 34.2471 229.962 33.6291C234.362 28.7627 239.084 23.9529 245.126 21.163C248.007 19.7908 251.152 19.0617 254.343 19.0265C257.636 19.1168 260.882 19.8248 263.913 21.1136C265.354 21.6892 266.763 22.3425 268.151 23.0382C269.737 23.8363 271.294 24.6874 272.844 25.5455C275.754 27.1559 278.627 28.8369 281.461 30.5885C287.101 34.074 292.564 37.8256 297.851 41.8433C300.591 43.9268 303.275 46.0787 305.902 48.2988C308.346 50.3612 310.741 52.4789 313.085 54.6519C313.587 55.1145 314.336 54.3659 313.834 53.9032C313.216 53.3276 312.591 52.7555 311.966 52.1905C310.2 50.5942 308.406 49.0286 306.584 47.4936C303.261 44.6896 299.852 41.9939 296.357 39.4066C290.922 35.3807 285.3 31.6279 279.491 28.1483C276.588 26.4108 273.645 24.7463 270.662 23.1548C269.761 22.6745 268.85 22.2048 267.929 21.7598C265.837 20.7049 263.664 19.8204 261.431 19.1148C258.267 18.0913 254.919 17.7624 251.617 18.1507C248.428 18.6145 245.356 19.6773 242.562 21.2831C236.629 24.5991 232.028 29.7268 227.55 34.7309C227.098 35.2394 227.843 35.9916 228.299 35.4831Z" fill="#E4E4E4" fill-opacity="0.8"/>
<path d="M106.737 85.9115L92.5208 80.7118L85.4623 78.1301C83.1818 77.2119 80.8559 76.4108 78.4937 75.73C76.4285 75.1401 74.2357 75.168 72.1862 75.8103C70.3584 76.4868 68.6854 77.524 67.2665 78.86C65.817 80.1949 64.4682 81.6353 63.2313 83.1693C61.6946 85.0162 60.1805 86.8824 58.6596 88.7423C52.3827 96.4188 46.1468 104.129 39.952 111.872C33.7573 119.615 27.604 127.39 21.4922 135.199C15.3654 143.027 9.28073 150.888 3.23821 158.781C2.49798 159.748 1.75839 160.715 1.01944 161.683C0.611179 162.218 -0.309371 161.691 0.104658 161.149C6.19176 153.176 12.3213 145.236 18.4933 137.328C24.6804 129.402 30.9103 121.509 37.1829 113.65C43.4555 105.791 49.7704 97.9666 56.1276 90.1758C57.7114 88.2349 59.2979 86.2961 60.8869 84.3595C62.2273 82.7259 63.5525 81.0746 65.0227 79.5541C67.7214 76.7631 71.093 74.2966 75.1288 74.2297C77.5017 74.1904 79.7981 74.9433 82.0028 75.7409C84.3795 76.6007 86.7505 77.4766 89.1241 78.3448L103.44 83.5809L107.019 84.8899C107.654 85.1222 107.38 86.1465 106.737 85.9115Z" fill="#E4E4E4" fill-opacity="0.8"/>
<path d="M246.997 27.2864C254.221 23.5733 263.473 24.3006 270.112 28.9395C257.449 31.1241 244.925 34.0473 232.603 37.694C237.72 34.6954 241.722 29.9974 246.997 27.2864Z" fill="#F2F2F2" fill-opacity="0.8"/>
<path d="M270.183 28.9267L271.574 30.0572C271.104 29.6615 270.615 29.2905 270.112 28.9395C270.136 28.9354 270.16 28.9308 270.183 28.9267Z" fill="#F2F2F2" fill-opacity="0.8"/>
<path d="M67.8018 85.9635C69.2012 84.26 70.7143 82.4763 72.8075 81.7844L74.7617 81.8615C59.8852 108.149 39.7934 131.118 15.7196 149.36C33.0803 128.228 50.4411 107.096 67.8018 85.9635Z" fill="#F2F2F2" fill-opacity="0.8"/>
</svg>
